<?xml version="1.0" standalone="no"?>
 <!DOCTYPE svg PUBLIC "-//W3C//DTD SVG 1.1//EN" 
 "http://www.w3.org/Graphics/SVG/1.1/DTD/svg11.dtd"> 
<svg
  xmlns:svg="http://www.w3.org/2000/svg"
  xmlns="http://www.w3.org/2000/svg"
  xmlns:xlink="http://www.w3.org/1999/xlink"
  version="1.1"
  width="297.0022mm" height="210.0072mm" viewBox="0.0000 0.0000 297.0022 210.0072">
<title>SVG Image created as logan-B_Silkscreen.svg date 2025/08/08 20:49:15 </title>
  <desc>Image generated by PCBNEW </desc>
<g style="fill:#000000; fill-opacity:1.0000;stroke:#000000; stroke-opacity:1.0000;
stroke-linecap:round; stroke-linejoin:round;"
 transform="translate(0 0) scale(1 1)">
<path style="fill:#000000; fill-opacity:1.0000; stroke:none;fill-rule:evenodd;"
d="M 134.7670,94.6438
134.8591,94.6223
134.9349,94.5969
134.9861,94.5727
135.0277,94.5450
135.0573,94.5173
135.0804,94.4864
135.1085,94.4160
135.1169,94.3326
135.1135,94.2887
135.1034,94.2464
135.0873,94.2079
135.0647,94.1719
135.0365,94.1400
135.0022,94.1114
134.9620,94.0869
134.9155,94.0666
134.8623,94.0509
134.8025,94.0404
134.7146,94.0352
134.6466,94.0384
134.5863,94.0477
134.5339,94.0622
134.4881,94.0814
134.4135,94.1325
134.3578,94.2001
134.3187,94.2855
134.3125,94.3061
134.2998,94.3307
134.2833,94.3494
134.2397,94.3718
134.2078,94.3757
134.1673,94.3709
134.1397,94.3620
134.1155,94.3473
134.0969,94.3283
134.0844,94.3049
134.0792,94.2750
134.0863,94.2390
134.1100,94.1739
134.1442,94.1070
134.1788,94.0563
134.2215,94.0077
134.2658,93.9685
134.3174,93.9328
134.3719,93.9038
134.4335,93.8792
134.4996,93.8604
134.5731,93.8468
134.7146,93.8376
134.8017,93.8408
134.8817,93.8503
134.9540,93.8653
135.0197,93.8855
135.0787,93.9104
135.1314,93.9397
135.1783,93.9731
135.2191,94.0100
135.2843,94.0944
135.3271,94.1917
135.3467,94.2997
135.3477,94.3326
135.3444,94.4063
135.3343,94.4731
135.3192,94.5282
135.2983,94.5783
135.2730,94.6215
135.2424,94.6607
135.1643,94.7284
135.0569,94.7856
134.9074,94.8346
134.8289,94.8525
134.6385,94.8929
134.5354,94.9174
134.4499,94.9460
134.3952,94.9716
134.3499,95.0010
134.3181,95.0298
134.2927,95.0622
134.2613,95.1348
134.2505,95.2298
134.2538,95.2778
134.2635,95.3229
134.2791,95.3639
134.3005,95.4016
134.3602,95.4667
134.4432,95.5174
134.5512,95.5513
134.6850,95.5643
134.6909,95.5643
134.7682,95.5611
134.8361,95.5518
134.8940,95.5375
134.9442,95.5185
134.9876,95.4954
135.0246,95.4686
135.0848,95.4030
135.1299,95.3186
135.1597,95.2274
135.1696,95.2042
135.1841,95.1859
135.2258,95.1618
135.2645,95.1563
135.3008,95.1603
135.3048,95.1609
135.3348,95.1715
135.3605,95.1879
135.3788,95.2076
135.3908,95.2316
135.3954,95.2606
135.3918,95.2855
135.3906,95.2914
135.3465,95.4150
135.3137,95.4792
135.2708,95.5420
135.2309,95.5865
135.1832,95.6280
135.1334,95.6618
135.0760,95.6918
135.0139,95.7163
134.9439,95.7364
134.8665,95.7512
134.7804,95.7606
134.6789,95.7641
134.5931,95.7609
134.5129,95.7513
134.4395,95.7359
134.3717,95.7151
134.3105,95.6894
134.2548,95.6589
134.2053,95.6244
134.1615,95.5858
134.1235,95.5435
134.0912,95.4977
134.0438,95.3964
134.0200,95.2826
134.0174,95.2274
134.0207,95.1545
134.0306,95.0884
134.0456,95.0325
134.0662,94.9818
134.0915,94.9372
134.1218,94.8969
134.1993,94.8266
134.3051,94.7664
134.4516,94.7136
134.5909,94.6794
Z" /> 
<path style="fill:#000000; fill-opacity:1.0000; stroke:none;fill-rule:evenodd;"
d="M 133.5946,94.4089
133.7778,94.4089
133.8047,94.4121
133.8262,94.4212
133.8536,94.4530
133.8635,94.5042
133.8602,94.5357
133.8499,94.5618
133.8358,94.5787
133.8165,94.5905
133.7802,94.5970
133.5946,94.5970
133.5946,95.4162
133.5913,95.4788
133.5818,95.5346
133.5672,95.5815
133.5475,95.6227
133.5237,95.6574
133.4956,95.6869
133.4265,95.7316
133.3379,95.7578
133.2566,95.7641
133.1885,95.7609
133.1302,95.7514
133.0311,95.7166
133.0210,95.7118
133.0004,95.6973
132.9856,95.6795
132.9714,95.6347
132.9710,95.6262
132.9806,95.5738
132.9942,95.5484
133.0128,95.5285
133.0331,95.5166
133.0563,95.5117
133.0591,95.5117
133.1019,95.5236
133.1547,95.5494
133.2160,95.5632
133.2424,95.5643
133.2790,95.5610
133.3104,95.5506
133.3330,95.5359
133.3514,95.5155
133.3746,95.4586
133.3803,95.3971
133.3803,94.5970
133.0758,94.5970
133.0488,94.5938
133.0266,94.5845
132.9975,94.5521
132.9877,94.5042
132.9910,94.4728
133.0011,94.4466
133.0152,94.4292
133.0344,94.4168
133.0758,94.4089
133.3803,94.4089
133.3803,94.1209
133.3835,94.0940
133.3927,94.0714
133.4259,94.0398
133.4785,94.0260
133.4875,94.0258
133.5212,94.0290
133.5492,94.0388
133.5688,94.0527
133.5832,94.0714
133.5946,94.1209
Z" /> 
<path style="fill:#000000; fill-opacity:1.0000; stroke:none;fill-rule:evenodd;"
d="M 132.7434,95.6490
132.7402,95.6767
132.7308,95.6996
132.6979,95.7302
132.6440,95.7438
132.6315,95.7442
132.5993,95.7409
132.5710,95.7308
132.5506,95.7163
132.5354,95.6964
132.5244,95.6490
132.5244,94.9919
132.5198,94.9386
132.5089,94.8876
132.4686,94.7917
132.4244,94.7276
132.3878,94.6863
132.3467,94.6514
132.3074,94.6274
132.2645,94.6098
132.1841,94.5967
132.0905,94.6065
132.0734,94.6101
132.0698,94.6109
132.0484,94.6133
132.0056,94.6012
131.9726,94.5665
131.9556,94.5205
131.9509,94.4800
131.9543,94.4511
131.9653,94.4270
131.9802,94.4115
132.0011,94.4004
132.0270,94.3943
132.0737,94.3856
132.1222,94.3823
132.1746,94.3847
132.2748,94.4006
132.3638,94.4393
132.4409,94.4992
132.5027,94.5774
132.5387,94.6538
132.5327,94.6140
132.5244,94.5419
132.5244,94.4894
132.5276,94.4629
132.5366,94.4408
132.5694,94.4098
132.6215,94.3959
132.6315,94.3956
132.6668,94.3989
132.6966,94.4089
132.7172,94.4229
132.7322,94.4419
132.7434,94.4885
Z" /> 
<path style="fill:#000000; fill-opacity:1.0000; stroke:none;fill-rule:evenodd;"
d="M 131.3044,94.3789
131.3809,94.3884
131.4432,94.4025
131.4973,94.4213
131.5874,94.4720
131.5987,94.4804
131.6421,94.5189
131.6836,94.5657
131.7141,94.6108
131.7366,94.6590
131.7391,94.6663
131.7439,94.6950
131.7316,94.7376
131.6957,94.7720
131.6653,94.7856
131.6106,94.7951
131.5805,94.7916
131.5538,94.7802
131.5358,94.7645
131.5216,94.7423
131.5178,94.7331
131.4982,94.6899
131.4726,94.6521
131.4450,94.6238
131.4119,94.6001
131.3746,94.5820
131.3314,94.5685
131.2220,94.5566
131.2179,94.5566
131.1514,94.5600
131.0945,94.5702
131.0538,94.5844
131.0196,94.6038
130.9944,94.6260
130.9745,94.6526
130.9498,94.7191
130.9442,94.7832
130.9442,94.8884
131.1439,94.8957
131.2943,94.9103
131.4535,94.9431
131.5210,94.9650
131.5822,94.9922
131.6332,95.0222
131.6784,95.0568
131.7154,95.0936
131.7467,95.1344
131.7715,95.1778
131.7906,95.2250
131.8113,95.3302
131.8129,95.3715
131.8096,95.4307
131.7999,95.4857
131.7845,95.5346
131.7635,95.5793
131.7377,95.6187
131.7068,95.6537
131.6306,95.7098
131.5343,95.7473
131.4164,95.7637
131.3916,95.7641
131.3182,95.7609
131.2521,95.7517
131.1920,95.7370
131.1382,95.7175
131.0426,95.6637
130.9580,95.5894
130.9394,95.5690
130.9252,95.6881
130.9176,95.7070
130.9051,95.7216
130.8653,95.7402
130.8252,95.7442
130.8037,95.7442
130.7724,95.7386
130.7468,95.7277
130.7275,95.7127
130.7147,95.6945
130.7085,95.6679
130.7133,95.6442
130.7339,95.5355
130.7395,95.4343
130.7395,95.2192
130.9442,95.2192
130.9477,95.2810
130.9591,95.3307
130.9960,95.3988
131.0060,95.4119
131.0430,95.4527
131.0857,95.4895
131.1321,95.5205
131.1831,95.5460
131.2350,95.5643
131.2904,95.5761
131.3560,95.5809
131.4034,95.5777
131.4466,95.5682
131.4842,95.5532
131.5170,95.5331
131.5438,95.5088
131.5653,95.4804
131.5808,95.4487
131.5904,95.4136
131.5939,95.3738
131.5906,95.3255
131.5807,95.2822
131.5657,95.2461
131.5451,95.2140
131.4874,95.1608
131.4488,95.1383
131.3958,95.1158
131.3331,95.0973
131.1669,95.0717
130.9442,95.0597
130.9442,95.2192
130.7395,95.2192
130.7395,94.7832
130.7428,94.7156
130.7528,94.6545
130.7678,94.6041
130.7884,94.5590
130.8131,94.5210
130.8428,94.4876
130.9168,94.4346
131.0150,94.3976
131.1453,94.3779
131.2155,94.3757
Z" /> 
<path style="fill:#000000; fill-opacity:1.0000; stroke:none;fill-rule:evenodd;"
d="M 130.2447,94.4089
130.4279,94.4089
130.4547,94.4121
130.4763,94.4212
130.5037,94.4530
130.5136,94.5042
130.5102,94.5357
130.5000,94.5618
130.4859,94.5787
130.4666,94.5905
130.4303,94.5970
130.2447,94.5970
130.2447,95.4162
130.2414,95.4788
130.2319,95.5346
130.2172,95.5815
130.1976,95.6227
130.1737,95.6574
130.1457,95.6869
130.0766,95.7316
129.9880,95.7578
129.9067,95.7641
129.8386,95.7609
129.7802,95.7514
129.6811,95.7166
129.6710,95.7118
129.6505,95.6973
129.6357,95.6795
129.6214,95.6347
129.6211,95.6262
129.6307,95.5738
129.6443,95.5484
129.6629,95.5285
129.6832,95.5166
129.7064,95.5117
129.7091,95.5117
129.7520,95.5236
129.8047,95.5494
129.8661,95.5632
129.8924,95.5643
129.9291,95.5610
129.9605,95.5506
129.9831,95.5359
130.0015,95.5155
130.0247,95.4586
130.0304,95.3971
130.0304,94.5970
129.7258,94.5970
129.6989,94.5938
129.6767,94.5845
129.6476,94.5521
129.6377,94.5042
129.6411,94.4728
129.6512,94.4466
129.6653,94.4292
129.6845,94.4168
129.7258,94.4089
130.0304,94.4089
130.0304,94.1209
130.0336,94.0940
130.0428,94.0714
130.0760,94.0398
130.1285,94.0260
130.1375,94.0258
130.1713,94.0290
130.1993,94.0388
130.2189,94.0527
130.2332,94.0714
130.2447,94.1209
Z" /> 
<path style="fill:#000000; fill-opacity:1.0000; stroke:none;fill-rule:evenodd;"
d="M 128.9433,94.3790
129.0105,94.3887
129.0730,94.4043
129.1315,94.4258
129.1857,94.4526
129.2357,94.4848
129.3235,94.5645
129.3944,94.6648
129.4471,94.7858
129.4794,94.9275
129.4887,95.0652
129.4854,95.1514
129.4755,95.2330
129.4599,95.3075
129.4385,95.3773
129.4122,95.4400
129.3807,95.4979
129.3452,95.5491
129.3050,95.5954
129.2611,95.6356
129.2129,95.6708
129.1609,95.7003
129.1049,95.7245
128.9804,95.7560
128.8675,95.7641
128.7998,95.7609
128.7355,95.7512
128.6755,95.7355
128.6190,95.7139
128.5175,95.6543
128.4312,95.5731
128.3609,95.4706
128.3085,95.3466
128.2765,95.2016
128.2677,95.0652
128.2678,95.0629
128.4866,95.0629
128.4900,95.1457
128.4999,95.2225
128.5151,95.2888
128.5360,95.3491
128.5607,95.3998
128.5902,95.4449
128.6225,95.4819
128.6591,95.5133
128.6985,95.5383
128.7418,95.5577
128.8394,95.5791
128.8817,95.5809
128.9339,95.5777
128.9827,95.5680
129.0274,95.5525
129.0687,95.5312
129.1409,95.4719
129.1995,95.3897
129.2424,95.2829
129.2662,95.1509
129.2696,95.0723
129.2663,94.9929
129.2565,94.9191
129.2413,94.8544
129.2204,94.7953
129.1955,94.7448
129.1658,94.6998
129.1330,94.6623
129.0959,94.6302
129.0560,94.6045
129.0122,94.5843
128.9138,94.5615
128.8651,94.5590
128.8132,94.5623
128.7649,94.5719
128.7209,94.5874
128.6805,94.6086
128.6100,94.6675
128.5533,94.7496
128.5119,94.8567
128.4894,94.9903
128.4866,95.0629
128.2678,95.0629
128.2710,94.9800
128.2808,94.8992
128.2964,94.8252
128.3179,94.7558
128.3442,94.6933
128.3758,94.6357
128.4113,94.5848
128.4515,94.5388
128.4953,94.4990
128.5434,94.4644
128.5950,94.4354
128.6506,94.4120
128.7736,94.3822
128.8722,94.3757
Z" /> 
<path style="fill:#000000; fill-opacity:1.0000; stroke:none;fill-rule:evenodd;"
d="M 127.4277,94.6438
127.5198,94.6223
127.5956,94.5969
127.6467,94.5727
127.6884,94.5450
127.7180,94.5173
127.7411,94.4864
127.7692,94.4160
127.7776,94.3326
127.7742,94.2887
127.7641,94.2464
127.7480,94.2079
127.7254,94.1719
127.6972,94.1400
127.6629,94.1114
127.6227,94.0869
127.5762,94.0666
127.5230,94.0509
127.4632,94.0404
127.3753,94.0352
127.3073,94.0384
127.2470,94.0477
127.1946,94.0622
127.1488,94.0814
127.0742,94.1325
127.0185,94.2001
126.9794,94.2855
126.9732,94.3061
126.9605,94.3307
126.9440,94.3494
126.9004,94.3718
126.8685,94.3757
126.8280,94.3709
126.8004,94.3620
126.7762,94.3473
126.7576,94.3283
126.7451,94.3049
126.7399,94.2750
126.7470,94.2390
126.7707,94.1739
126.8049,94.1070
126.8394,94.0563
126.8822,94.0077
126.9265,93.9685
126.9781,93.9328
127.0326,93.9038
127.0942,93.8792
127.1603,93.8604
127.2338,93.8468
127.3753,93.8376
127.4624,93.8408
127.5424,93.8503
127.6147,93.8653
127.6804,93.8855
127.7394,93.9104
127.7921,93.9397
127.8390,93.9731
127.8798,94.0100
127.9450,94.0944
127.9878,94.1917
128.0074,94.2997
128.0084,94.3326
128.0051,94.4063
127.9950,94.4731
127.9799,94.5282
127.9590,94.5783
127.9337,94.6215
127.9031,94.6607
127.8250,94.7284
127.7176,94.7856
127.5681,94.8346
127.4896,94.8525
127.2992,94.8929
127.1961,94.9174
127.1106,94.9460
127.0559,94.9716
127.0106,95.0010
126.9788,95.0298
126.9534,95.0622
126.9220,95.1348
126.9112,95.2298
126.9145,95.2778
126.9242,95.3229
126.9398,95.3639
126.9612,95.4016
127.0209,95.4667
127.1039,95.5174
127.2119,95.5513
127.3457,95.5643
127.3516,95.5643
127.4289,95.5611
127.4968,95.5518
127.5547,95.5375
127.6049,95.5185
127.6483,95.4954
127.6853,95.4686
127.7455,95.4030
127.7906,95.3186
127.8204,95.2274
127.8303,95.2042
127.8448,95.1859
127.8865,95.1618
127.9252,95.1563
127.9615,95.1603
127.9655,95.1609
127.9955,95.1715
128.0212,95.1879
128.0395,95.2076
128.0515,95.2316
128.0561,95.2606
128.0525,95.2855
128.0513,95.2914
128.0072,95.4150
127.9744,95.4792
127.9315,95.5420
127.8916,95.5865
127.8439,95.6280
127.7941,95.6618
127.7367,95.6918
127.6746,95.7163
127.6046,95.7364
127.5272,95.7512
127.4411,95.7606
127.3396,95.7641
127.2538,95.7609
127.1736,95.7513
127.1002,95.7359
127.0324,95.7151
126.9712,95.6894
126.9155,95.6589
126.8660,95.6244
126.8222,95.5858
126.7842,95.5435
126.7519,95.4977
126.7045,95.3964
126.6807,95.2826
126.6781,95.2274
126.6814,95.1545
126.6913,95.0884
126.7063,95.0325
126.7269,94.9818
126.7522,94.9372
126.7825,94.8969
126.8600,94.8266
126.9658,94.7664
127.1123,94.7136
127.2516,94.6794
Z" /> 
<path style="fill:#000000; fill-opacity:1.0000; stroke:none;fill-rule:evenodd;"
d="M 126.4576,95.0735
126.4543,95.1590
126.4445,95.2404
126.4288,95.3148
126.4072,95.3846
126.3808,95.4474
126.3492,95.5053
126.3136,95.5563
126.2733,95.6024
126.2296,95.6421
126.1815,95.6766
126.1300,95.7053
126.0744,95.7286
126.0149,95.7462
125.9514,95.7579
125.8554,95.7641
125.7811,95.7609
125.7141,95.7516
125.6541,95.7368
125.6005,95.7172
125.5088,95.6640
125.4345,95.5927
125.3745,95.5018
125.3414,95.4292
125.3319,95.3865
125.3350,95.3646
125.3440,95.3457
125.3784,95.3163
125.4080,95.3059
125.4580,95.2964
125.4846,95.2998
125.5085,95.3105
125.5265,95.3263
125.5410,95.3487
125.5460,95.3605
125.5715,95.4213
125.6041,95.4743
125.6329,95.5063
125.6674,95.5332
125.7036,95.5523
125.7455,95.5665
125.8481,95.5785
125.8507,95.5785
125.9054,95.5753
125.9561,95.5655
126.0014,95.5502
126.0428,95.5291
126.1135,95.4712
126.1696,95.3908
126.2104,95.2852
126.2330,95.1512
126.2362,95.0712
126.2329,94.9919
126.2230,94.9176
126.2077,94.8521
126.1866,94.7921
126.1616,94.7410
126.1316,94.6955
126.0990,94.6581
126.0621,94.6264
126.0229,94.6016
125.9799,94.5825
125.9341,94.5695
125.8847,94.5626
125.8530,94.5614
125.7975,94.5646
125.7492,94.5740
125.7088,94.5884
125.6740,94.6075
125.6172,94.6598
125.5719,94.7353
125.5555,94.7748
125.5427,94.7976
125.5264,94.8137
125.4852,94.8286
125.4723,94.8293
125.4199,94.8222
125.3898,94.8063
125.3649,94.7829
125.3531,94.7613
125.3485,94.7356
125.3485,94.7344
125.3556,94.6989
125.3854,94.6345
125.4254,94.5706
125.4628,94.5256
125.5077,94.4841
125.5529,94.4521
125.6049,94.4246
125.6592,94.4039
125.7201,94.3884
125.7854,94.3790
125.8576,94.3757
125.8578,94.3757
125.9278,94.3790
125.9937,94.3886
126.0544,94.4042
126.1111,94.4254
126.1635,94.4521
126.2117,94.4839
126.2964,94.5633
126.3651,94.6639
126.4166,94.7865
126.4484,94.9314
Z" /> 
<path style="fill:#000000; fill-opacity:1.0000; stroke:none;fill-rule:evenodd;"
d="M 125.0787,95.6489
125.0754,95.6781
125.0659,95.7019
125.0332,95.7318
124.9795,95.7441
124.9716,95.7442
124.9373,95.7409
124.9082,95.7308
124.8880,95.7166
124.8732,95.6973
124.8620,95.6489
124.8620,94.4886
124.8653,94.4618
124.8745,94.4395
124.9076,94.4092
124.9614,94.3959
124.9716,94.3956
125.0064,94.3989
125.0351,94.4089
125.0544,94.4227
125.0683,94.4415
125.0787,94.4886
Z" /> 
<path style="fill:#000000; fill-opacity:1.0000; stroke:none;fill-rule:evenodd;"
d="M 124.9692,93.8575
125.0334,93.8700
125.0865,93.9058
125.1065,93.9311
125.1210,93.9603
125.1310,94.0170
125.1185,94.0812
125.0830,94.1337
125.0578,94.1536
125.0286,94.1682
124.9692,94.1789
124.9064,94.1663
124.8539,94.1302
124.8341,94.1046
124.8197,94.0749
124.8097,94.0170
124.8222,93.9541
124.8578,93.9020
124.8832,93.8821
124.9124,93.8676
Z" /> 
<path style="fill:#000000; fill-opacity:1.0000; stroke:none;fill-rule:evenodd;"
d="M 124.0522,94.3790
124.1183,94.3886
124.1793,94.4042
124.2363,94.4255
124.2889,94.4522
124.3374,94.4841
124.4225,94.5637
124.4915,94.6643
124.5431,94.7869
124.5750,94.9318
124.5842,95.0742
124.5809,95.1589
124.5710,95.2394
124.5554,95.3130
124.5339,95.3821
124.5076,95.4443
124.4759,95.5017
124.4403,95.5525
124.3999,95.5985
124.3558,95.6384
124.3074,95.6732
124.2553,95.7024
124.1990,95.7261
124.0743,95.7568
123.9677,95.7641
123.8933,95.7609
123.8258,95.7516
123.7648,95.7367
123.7098,95.7169
123.6143,95.6629
123.5351,95.5902
123.4692,95.4971
123.4441,95.4494
123.4324,95.4121
123.4323,95.4063
123.4443,95.3651
123.4786,95.3341
123.5060,95.3227
123.5063,95.3226
123.5560,95.3131
123.5811,95.3166
123.6046,95.3277
123.6233,95.3447
123.6397,95.3692
123.6416,95.3729
123.6694,95.4260
123.7028,95.4729
123.7359,95.5070
123.7738,95.5357
123.8133,95.5567
123.8576,95.5723
123.9059,95.5819
123.9595,95.5857
123.9654,95.5857
124.0231,95.5824
124.0768,95.5727
124.1248,95.5573
124.1688,95.5363
124.2438,95.4786
124.3028,95.3998
124.3454,95.2980
124.3689,95.1710
124.3723,95.1075
123.5346,95.1075
123.5021,95.1042
123.4742,95.0943
123.4530,95.0798
123.4363,95.0599
123.4174,95.0053
123.4155,94.9766
123.4155,94.9576
123.4237,94.8911
123.6322,94.8911
123.6322,94.9029
123.6358,94.9208
123.6478,94.9308
123.6679,94.9337
124.3651,94.9337
124.3525,94.8640
124.3337,94.7999
124.3111,94.7466
124.2832,94.6988
124.2526,94.6598
124.2174,94.6262
124.1797,94.5996
124.1376,94.5783
124.0921,94.5629
124.0424,94.5532
123.9820,94.5494
123.9317,94.5527
123.8858,94.5620
123.8054,94.5973
123.7384,94.6541
123.6842,94.7328
123.6448,94.8337
123.6322,94.8911
123.4237,94.8911
123.4245,94.8840
123.4400,94.8127
123.4613,94.7459
123.4887,94.6825
123.5206,94.6256
123.5580,94.5730
123.5987,94.5276
123.6442,94.4871
123.6922,94.4536
123.7446,94.4255
123.7992,94.4039
123.8579,94.3881
123.9820,94.3757
Z" /> 
<path style="fill:#000000; fill-opacity:1.0000; stroke:none;fill-rule:evenodd;"
d="M 122.0623,94.8398
122.0656,94.7676
122.0754,94.7009
122.0907,94.6432
122.1116,94.5907
122.1366,94.5458
122.1667,94.5059
122.2006,94.4720
122.2391,94.4430
122.3293,94.4003
122.4400,94.3782
122.4978,94.3757
122.5642,94.3789
122.6256,94.3886
122.6808,94.4039
122.7316,94.4247
122.8202,94.4818
122.8944,94.5605
122.9500,94.6518
122.9445,94.5978
122.9404,94.5518
122.9404,94.4876
122.9437,94.4605
122.9529,94.4381
122.9858,94.4081
123.0389,94.3957
123.0452,94.3956
123.0805,94.3989
123.1103,94.4089
123.1308,94.4229
123.1459,94.4419
123.1571,94.4885
123.1571,95.6475
123.1538,95.6759
123.1444,95.6993
123.1116,95.7295
123.0579,95.7425
123.0476,95.7428
123.0144,95.7394
122.9860,95.7293
122.9661,95.7150
122.9514,95.6955
122.9404,95.6475
122.9404,94.9812
122.9370,94.9240
122.9262,94.8714
122.8866,94.7823
122.8572,94.7384
122.8207,94.6932
122.7810,94.6550
122.7402,94.6250
122.6967,94.6013
122.6038,94.5734
122.5406,94.5685
122.4907,94.5718
122.4464,94.5816
122.4102,94.5964
122.3786,94.6166
122.3299,94.6710
122.2973,94.7481
122.2818,94.8548
122.2812,94.8857
122.2812,95.6488
122.2780,95.6766
122.2687,95.6996
122.2359,95.7303
122.1830,95.7439
122.1718,95.7442
122.1384,95.7409
122.1094,95.7308
122.0889,95.7164
122.0736,95.6967
122.0623,95.6488
Z" /> 
<path style="fill:#000000; fill-opacity:1.0000; stroke:none;fill-rule:evenodd;"
d="M 121.7923,95.0735
121.7890,95.1590
121.7791,95.2404
121.7635,95.3148
121.7419,95.3846
121.7155,95.4474
121.6838,95.5053
121.6483,95.5563
121.6080,95.6024
121.5643,95.6421
121.5162,95.6766
121.4647,95.7053
121.4090,95.7286
121.3496,95.7462
121.2861,95.7579
121.1901,95.7641
121.1158,95.7609
121.0487,95.7516
120.9888,95.7368
120.9351,95.7172
120.8435,95.6640
120.7692,95.5927
120.7091,95.5018
120.6761,95.4292
120.6665,95.3865
120.6697,95.3646
120.6787,95.3457
120.7131,95.3163
120.7427,95.3059
120.7926,95.2964
120.8192,95.2998
120.8431,95.3105
120.8612,95.3263
120.8757,95.3487
120.8807,95.3605
120.9062,95.4213
120.9388,95.4743
120.9676,95.5063
121.0020,95.5332
121.0382,95.5523
121.0802,95.5665
121.1828,95.5785
121.1853,95.5785
121.2401,95.5753
121.2908,95.5655
121.3361,95.5502
121.3775,95.5291
121.4482,95.4712
121.5043,95.3908
121.5451,95.2852
121.5677,95.1512
121.5709,95.0712
121.5675,94.9919
121.5577,94.9176
121.5424,94.8521
121.5213,94.7921
121.4962,94.7410
121.4663,94.6955
121.4337,94.6581
121.3968,94.6264
121.3576,94.6016
121.3146,94.5825
121.2687,94.5695
121.2193,94.5626
121.1877,94.5614
121.1322,94.5646
121.0839,94.5740
121.0435,94.5884
121.0087,94.6075
120.9519,94.6598
120.9065,94.7353
120.8902,94.7748
120.8774,94.7976
120.8610,94.8137
120.8199,94.8286
120.8070,94.8293
120.7545,94.8222
120.7245,94.8063
120.6996,94.7829
120.6878,94.7613
120.6831,94.7356
120.6831,94.7344
120.6903,94.6989
120.7200,94.6345
120.7601,94.5706
120.7974,94.5256
120.8423,94.4841
120.8876,94.4521
120.9396,94.4246
120.9939,94.4039
121.0548,94.3884
121.1201,94.3790
121.1923,94.3757
121.1925,94.3757
121.2625,94.3790
121.3283,94.3886
121.3891,94.4042
121.4458,94.4254
121.4981,94.4521
121.5463,94.4839
121.6310,94.5633
121.6998,94.6639
121.7513,94.7865
121.7831,94.9314
Z" /> 
<path style="fill:#000000; fill-opacity:1.0000; stroke:none;fill-rule:evenodd;"
d="M 119.9432,94.3790
120.0094,94.3886
120.0704,94.4042
120.1274,94.4255
120.1800,94.4522
120.2285,94.4841
120.3136,94.5637
120.3825,94.6643
120.4342,94.7869
120.4660,94.9318
120.4752,95.0742
120.4719,95.1589
120.4621,95.2394
120.4465,95.3130
120.4249,95.3821
120.3986,95.4443
120.3670,95.5017
120.3313,95.5525
120.2909,95.5985
120.2469,95.6384
120.1984,95.6732
120.1463,95.7024
120.0901,95.7261
119.9654,95.7568
119.8587,95.7641
119.7844,95.7609
119.7169,95.7516
119.6558,95.7367
119.6008,95.7169
119.5054,95.6629
119.4262,95.5902
119.3603,95.4971
119.3351,95.4494
119.3234,95.4121
119.3233,95.4063
119.3353,95.3651
119.3696,95.3341
119.3970,95.3227
119.3973,95.3226
119.4470,95.3131
119.4722,95.3166
119.4956,95.3277
119.5144,95.3447
119.5308,95.3692
119.5327,95.3729
119.5604,95.4260
119.5939,95.4729
119.6269,95.5070
119.6649,95.5357
119.7044,95.5567
119.7487,95.5723
119.7970,95.5819
119.8505,95.5857
119.8564,95.5857
119.9142,95.5824
119.9678,95.5727
120.0159,95.5573
120.0599,95.5363
120.1348,95.4786
120.1938,95.3998
120.2364,95.2980
120.2600,95.1710
120.2633,95.1075
119.4257,95.1075
119.3931,95.1042
119.3652,95.0943
119.3441,95.0798
119.3274,95.0599
119.3085,95.0053
119.3066,94.9766
119.3066,94.9576
119.3147,94.8911
119.5232,94.8911
119.5232,94.9029
119.5268,94.9208
119.5389,94.9308
119.5589,94.9337
120.2562,94.9337
120.2435,94.8640
120.2248,94.7999
120.2022,94.7466
120.1743,94.6988
120.1437,94.6598
120.1085,94.6262
120.0707,94.5996
120.0287,94.5783
119.9832,94.5629
119.9334,94.5532
119.8730,94.5494
119.8228,94.5527
119.7768,94.5620
119.6965,94.5973
119.6295,94.6541
119.5752,94.7328
119.5359,94.8337
119.5232,94.8911
119.3147,94.8911
119.3156,94.8840
119.3310,94.8127
119.3523,94.7459
119.3797,94.6825
119.4117,94.6256
119.4491,94.5730
119.4897,94.5276
119.5353,94.4871
119.5833,94.4536
119.6356,94.4255
119.6903,94.4039
119.7490,94.3881
119.8730,94.3757
Z" /> 
<path style="fill:#000000; fill-opacity:1.0000; stroke:none;fill-rule:evenodd;"
d="M 118.2130,95.4762
118.2097,95.5379
118.1994,95.5904
118.1852,95.6278
118.1658,95.6590
118.1433,95.6825
118.1161,95.7011
118.0456,95.7249
117.9702,95.7309
117.0563,95.7309
117.0310,95.7278
117.0092,95.7188
116.9757,95.6853
116.9593,95.6335
116.9588,95.6215
116.9620,95.5916
116.9716,95.5653
116.9862,95.5449
117.0058,95.5294
117.0287,95.5201
117.0557,95.5168
117.0563,95.5168
117.8988,95.5168
117.9283,95.5135
117.9520,95.5036
117.9675,95.4898
117.9782,95.4712
117.9846,95.4332
117.9846,93.9579
117.9878,93.9288
117.9970,93.9049
118.0295,93.8730
118.0819,93.8582
118.0987,93.8575
118.1333,93.8609
118.1634,93.8713
118.1844,93.8858
118.2002,93.9059
118.2094,93.9292
118.2130,93.9573
118.2130,93.9603
Z" /> 
<path style="fill:#000000; fill-opacity:1.0000; stroke:none;fill-rule:evenodd;"
d="M 116.3136,94.3789
116.3901,94.3884
116.4523,94.4025
116.5065,94.4213
116.5965,94.4720
116.6078,94.4804
116.6513,94.5189
116.6928,94.5657
116.7232,94.6108
116.7458,94.6590
116.7483,94.6663
116.7530,94.6950
116.7408,94.7376
116.7048,94.7720
116.6745,94.7856
116.6198,94.7951
116.5897,94.7916
116.5630,94.7802
116.5449,94.7645
116.5308,94.7423
116.5270,94.7331
116.5073,94.6899
116.4818,94.6521
116.4542,94.6238
116.4211,94.6001
116.3837,94.5820
116.3405,94.5685
116.2312,94.5566
116.2271,94.5566
116.1605,94.5600
116.1037,94.5702
116.0629,94.5844
116.0288,94.6038
116.0036,94.6260
115.9836,94.6526
115.9590,94.7191
115.9533,94.7832
115.9533,94.8884
116.1530,94.8957
116.3035,94.9103
116.4627,94.9431
116.5302,94.9650
116.5913,94.9922
116.6424,95.0222
116.6875,95.0568
116.7245,95.0936
116.7559,95.1344
116.7806,95.1778
116.7998,95.2250
116.8205,95.3302
116.8221,95.3715
116.8188,95.4307
116.8090,95.4857
116.7937,95.5346
116.7727,95.5793
116.7469,95.6187
116.7160,95.6537
116.6398,95.7098
116.5435,95.7473
116.4255,95.7637
116.4007,95.7641
116.3274,95.7609
116.2612,95.7517
116.2012,95.7370
116.1474,95.7175
116.0517,95.6637
115.9672,95.5894
115.9486,95.5690
115.9343,95.6881
115.9268,95.7070
115.9143,95.7216
115.8745,95.7402
115.8344,95.7442
115.8129,95.7442
115.7816,95.7386
115.7559,95.7277
115.7366,95.7127
115.7238,95.6945
115.7177,95.6679
115.7225,95.6442
115.7431,95.5355
115.7486,95.4343
115.7486,95.2192
115.9533,95.2192
115.9569,95.2810
115.9682,95.3307
116.0052,95.3988
116.0152,95.4119
116.0521,95.4527
116.0949,95.4895
116.1412,95.5205
116.1922,95.5460
116.2441,95.5643
116.2995,95.5761
116.3651,95.5809
116.4125,95.5777
116.4557,95.5682
116.4934,95.5532
116.5262,95.5331
116.5530,95.5088
116.5744,95.4804
116.5899,95.4487
116.5996,95.4136
116.6030,95.3738
116.5997,95.3255
116.5899,95.2822
116.5748,95.2461
116.5542,95.2140
116.4966,95.1608
116.4579,95.1383
116.4050,95.1158
116.3423,95.0973
116.1760,95.0717
115.9533,95.0597
115.9533,95.2192
115.7486,95.2192
115.7486,94.7832
115.7520,94.7156
115.7619,94.6545
115.7769,94.6041
115.7975,94.5590
115.8222,94.5210
115.8519,94.4876
115.9259,94.4346
116.0241,94.3976
116.1544,94.3779
116.2247,94.3757
Z" /> 
<path style="fill:#000000; fill-opacity:1.0000; stroke:none;fill-rule:evenodd;"
d="M 115.3219,93.8608
115.3506,93.8709
115.3697,93.8848
115.3836,93.9037
115.3943,93.9531
115.3943,95.6476
115.3910,95.6773
115.3815,95.7015
115.3489,95.7317
115.2957,95.7440
115.2871,95.7442
115.2538,95.7410
115.2267,95.7318
115.2072,95.7183
115.1933,95.7007
115.1824,95.6560
115.1824,95.6047
115.1919,95.4904
115.1633,95.5450
115.1294,95.5945
115.0929,95.6358
115.0516,95.6720
115.0076,95.7015
114.9592,95.7256
114.9074,95.7439
114.8512,95.7565
114.7540,95.7641
114.6895,95.7609
114.6284,95.7511
114.5713,95.7354
114.5176,95.7139
114.4211,95.6539
114.3388,95.5718
114.2718,95.4672
114.2219,95.3395
114.1922,95.1887
114.1853,95.0646
114.4042,95.0646
114.4075,95.1445
114.4173,95.2190
114.4325,95.2849
114.4535,95.3451
114.4784,95.3964
114.5081,95.4420
114.5405,95.4795
114.5771,95.5113
114.6160,95.5362
114.6585,95.5553
114.7037,95.5682
114.7523,95.5750
114.7825,95.5762
114.8349,95.5729
114.8842,95.5633
114.9302,95.5476
114.9729,95.5263
115.0487,95.4665
115.1108,95.3839
115.1568,95.2783
115.1828,95.1506
115.1872,95.0664
115.1839,94.9927
115.1741,94.9232
115.1586,94.8603
115.1372,94.8021
115.1116,94.7514
115.0808,94.7057
115.0469,94.6674
115.0085,94.6344
114.9674,94.6080
114.9225,94.5872
114.8746,94.5725
114.8231,94.5638
114.7754,94.5614
114.7232,94.5647
114.6746,94.5744
114.6310,94.5899
114.5909,94.6111
114.5221,94.6698
114.4672,94.7518
114.4275,94.8598
114.4064,94.9967
114.4042,95.0646
114.1853,95.0646
114.1852,95.0616
114.1885,94.9707
114.1983,94.8853
114.2137,94.8088
114.2349,94.7377
114.2606,94.6750
114.2913,94.6177
114.3256,94.5679
114.3644,94.5235
114.4063,94.4855
114.4524,94.4530
114.5019,94.4262
114.5553,94.4050
114.6741,94.3795
114.7468,94.3757
114.8126,94.3790
114.8735,94.3886
114.9282,94.4040
114.9784,94.4249
115.0666,94.4825
115.1417,94.5628
115.1943,94.6471
115.1824,94.4734
115.1824,93.9531
115.1856,93.9246
115.1949,93.9012
115.2273,93.8705
115.2792,93.8577
115.2871,93.8575
Z" /> 
<path style="fill:#000000; fill-opacity:1.0000; stroke:none;fill-rule:evenodd;"
d="M 116.1582,89.1868
116.3464,89.2085
116.4998,89.2510
116.6315,89.3181
116.7548,89.4136
116.8042,89.4605
116.8832,89.5532
116.9462,89.6589
116.9967,89.7871
117.0381,89.9474
117.0736,90.1492
117.1067,90.4022
117.1268,90.5051
117.1839,90.6169
117.2804,90.6869
117.4235,90.7223
117.5896,90.7426
117.5980,91.2568
117.5996,91.3868
117.6001,91.5454
117.5988,91.6761
117.5958,91.7679
117.5913,91.8099
117.5660,91.8276
117.4913,91.8424
117.3822,91.8487
117.2531,91.8464
117.1184,91.8352
116.9925,91.8151
116.8766,91.7852
116.6380,91.6855
116.4281,91.5451
116.2564,91.3711
116.1325,91.1707
116.1153,91.1285
116.0733,90.9904
116.0368,90.8248
116.0106,90.6552
115.9993,90.5054
115.9988,90.4984
115.9670,90.4245
115.8984,90.3512
115.8123,90.2951
115.7279,90.2728
115.6346,90.2728
115.6346,89.7272
115.6346,89.1816
115.9645,89.1816
Z" /> 
<path style="fill:#000000; fill-opacity:1.0000; stroke:none;fill-rule:evenodd;"
d="M 129.0613,88.0754
129.1901,88.0777
129.2845,88.0863
129.3638,88.1052
129.4471,88.1382
129.5538,88.1894
129.6115,88.2195
129.8276,88.3667
130.0050,88.5521
130.1482,88.7814
130.2619,89.0604
130.2745,89.1034
130.2859,89.1561
130.2953,89.2215
130.3030,89.3056
130.3092,89.4143
130.3142,89.5538
130.3184,89.7299
130.3218,89.9486
130.3249,90.2160
130.3279,90.5380
130.3391,91.8489
129.7764,91.8489
129.2136,91.8489
129.2119,90.6592
129.2117,90.5266
129.2107,90.2215
129.2087,89.9697
129.2048,89.7662
129.1985,89.6057
129.1891,89.4829
129.1759,89.3928
129.1582,89.3300
129.1353,89.2893
129.1067,89.2656
129.0715,89.2537
129.0291,89.2483
128.9909,89.2452
128.9516,89.2451
128.9194,89.2539
128.8936,89.2768
128.8734,89.3190
128.8579,89.3857
128.8464,89.4819
128.8380,89.6129
128.8319,89.7839
128.8274,90.0000
128.8235,90.2663
128.8196,90.5881
128.8044,91.8338
128.2437,91.8338
127.6829,91.8338
127.6849,90.5910
127.6850,90.5205
127.6859,90.2147
127.6876,89.9617
127.6901,89.7554
127.6939,89.5893
127.6990,89.4570
127.7059,89.3522
127.7146,89.2686
127.7254,89.1997
127.7385,89.1393
127.7698,89.0287
127.8853,88.7559
128.0443,88.5195
128.2430,88.3245
128.4776,88.1759
128.4969,88.1664
128.5889,88.1241
128.6667,88.0974
128.7491,88.0827
128.8548,88.0766
129.0024,88.0753
Z" /> 
<path style="fill:#000000; fill-opacity:1.0000; stroke:none;fill-rule:evenodd;"
d="M 125.9354,88.1280
126.1851,88.1414
126.3918,88.1694
126.5639,88.2133
126.7100,88.2741
126.8268,88.3483
126.9728,88.4757
127.0998,88.6227
127.1887,88.7696
127.2041,88.8047
127.2200,88.8473
127.2325,88.8951
127.2423,88.9550
127.2497,89.0340
127.2552,89.1389
127.2593,89.2768
127.2625,89.4545
127.2651,89.6789
127.2676,89.9571
127.2692,90.1459
127.2709,90.3889
127.2713,90.5828
127.2701,90.7349
127.2671,90.8521
127.2619,90.9415
127.2541,91.0102
127.2434,91.0652
127.2296,91.1135
127.2123,91.1623
127.1901,91.2160
127.0697,91.4112
126.9012,91.5779
126.6916,91.7102
126.4478,91.8024
126.4021,91.8129
126.2962,91.8273
126.1538,91.8364
125.9671,91.8403
125.7279,91.8397
125.1672,91.8338
125.1672,91.2882
125.1672,90.7426
125.6457,90.7274
125.8156,90.7214
125.9618,90.7131
126.0629,90.7007
126.1271,90.6817
126.1629,90.6536
126.1785,90.6136
126.1821,90.5592
126.1815,90.5363
126.1708,90.4932
126.1407,90.4627
126.0830,90.4427
125.9893,90.4311
125.8514,90.4257
125.6612,90.4243
125.2126,90.4243
125.2126,89.9848
125.2126,89.5453
125.6045,89.5453
125.7488,89.5440
125.8940,89.5367
125.9928,89.5210
126.0532,89.4945
126.0833,89.4547
126.0912,89.3992
126.0905,89.3780
126.0814,89.3312
126.0547,89.2978
126.0018,89.2749
125.9142,89.2599
125.7833,89.2499
125.6003,89.2422
125.1672,89.2271
125.1672,88.6815
125.1672,88.1359
125.6581,88.1276
Z" /> 
<path style="fill:#000000; fill-opacity:1.0000; stroke:none;fill-rule:evenodd;"
d="M 120.4981,89.3786
120.4979,89.5087
120.4971,89.8025
120.4955,90.0444
120.4930,90.2408
120.4893,90.3981
120.4841,90.5225
120.4772,90.6204
120.4685,90.6982
120.4576,90.7620
120.4443,90.8184
120.3459,91.1014
120.2034,91.3563
120.0204,91.5666
119.7962,91.7330
119.5299,91.8567
119.4625,91.8773
119.3595,91.8959
119.2310,91.9036
119.0597,91.9022
118.9101,91.8966
118.8008,91.8863
118.7113,91.8670
118.6213,91.8343
118.5105,91.7837
118.3244,91.6776
118.1047,91.4945
117.9280,91.2722
117.7986,91.0165
117.7207,90.7331
117.7021,90.5142
117.7283,90.2466
117.8044,89.9896
117.9254,89.7512
118.0861,89.5391
118.2815,89.3611
118.5067,89.2249
118.7564,89.1383
118.8618,89.1178
119.0110,89.0990
119.1486,89.0920
119.2587,89.0975
119.3256,89.1161
119.3286,89.1185
119.3423,89.1483
119.3516,89.2114
119.3567,89.3147
119.3580,89.4649
119.3559,89.6688
119.3556,89.6910
119.3518,89.8782
119.3471,90.0132
119.3406,90.1039
119.3314,90.1578
119.3189,90.1826
119.3021,90.1862
119.1640,90.1633
119.0066,90.1724
118.8864,90.2287
118.8025,90.3324
118.8016,90.3343
118.7577,90.4770
118.7736,90.6135
118.8488,90.7394
118.9593,90.8319
119.0854,90.8693
119.2268,90.8485
119.2627,90.8363
119.3058,90.8177
119.3413,90.7926
119.3699,90.7554
119.3925,90.7009
119.4100,90.6236
119.4232,90.5181
119.4329,90.3790
119.4400,90.2009
119.4453,89.9784
119.4496,89.7061
119.4537,89.3786
119.4689,88.1359
119.9841,88.1359
120.4994,88.1359
Z" /> 
<path style="fill:#000000; fill-opacity:1.0000; stroke:none;fill-rule:evenodd;"
d="M 121.9152,89.4188
121.9152,89.4196
121.9174,89.7468
121.9198,90.0186
121.9231,90.2400
121.9279,90.4163
121.9350,90.5526
121.9451,90.6540
121.9589,90.7257
121.9770,90.7728
122.0003,90.8004
122.0294,90.8138
122.0650,90.8181
122.1078,90.8184
122.1512,90.8179
122.1893,90.8131
122.2204,90.7989
122.2452,90.7702
122.2645,90.7217
122.2789,90.6485
122.2892,90.5454
122.2960,90.4073
122.3000,90.2291
122.3021,90.0055
122.3028,89.7316
122.3029,89.4022
122.3029,88.1208
122.8484,88.1208
123.3940,88.1208
123.3940,89.4022
123.3941,89.7171
123.3948,89.9936
123.3967,90.2194
123.4007,90.3997
123.4073,90.5397
123.4174,90.6443
123.4316,90.7188
123.4506,90.7683
123.4752,90.7979
123.5060,90.8127
123.5437,90.8178
123.5891,90.8184
123.5891,90.8184
123.6320,90.8181
123.6676,90.8138
123.6966,90.8004
123.7199,90.7727
123.7381,90.7255
123.7518,90.6538
123.7619,90.5523
123.7691,90.4160
123.7739,90.2396
123.7772,90.0180
123.7797,89.7461
123.7820,89.4188
123.7911,88.1194
124.3212,88.1276
124.8513,88.1359
124.8496,89.5409
124.8492,89.6886
124.8476,89.9977
124.8448,90.2793
124.8410,90.5278
124.8362,90.7379
124.8306,90.9038
124.8243,91.0202
124.8174,91.0814
124.7825,91.2041
124.6735,91.4307
124.5179,91.6238
124.3218,91.7768
124.0912,91.8829
124.0674,91.8881
123.9818,91.8964
123.8624,91.9004
123.7274,91.8992
123.7088,91.8986
123.5649,91.8910
123.4598,91.8765
123.3740,91.8513
123.2879,91.8115
123.2028,91.7625
123.0325,91.6341
122.9045,91.4914
122.8560,91.4219
122.6777,91.6002
122.6048,91.6693
122.4452,91.7890
122.2790,91.8638
122.0904,91.8997
121.8634,91.9025
121.8553,91.9021
121.6355,91.8775
121.4550,91.8237
121.2973,91.7336
121.1458,91.6003
121.0775,91.5247
121.0190,91.4444
120.9697,91.3546
120.9289,91.2500
120.8959,91.1257
120.8701,90.9764
120.8506,90.7972
120.8368,90.5828
120.8280,90.3283
120.8235,90.0285
120.8226,89.6782
120.8245,89.2726
120.8328,88.1359
121.3696,88.1276
121.9064,88.1194
Z" /> 
</g> 
</svg>
