<?xml version="1.0" standalone="no"?>
 <!DOCTYPE svg PUBLIC "-//W3C//DTD SVG 1.1//EN" 
 "http://www.w3.org/Graphics/SVG/1.1/DTD/svg11.dtd"> 
<svg
  xmlns:svg="http://www.w3.org/2000/svg"
  xmlns="http://www.w3.org/2000/svg"
  xmlns:xlink="http://www.w3.org/1999/xlink"
  version="1.1"
  width="297.0022mm" height="210.0072mm" viewBox="0.0000 0.0000 297.0022 210.0072">
<title>SVG Image created as logan-F_Cu.svg date 2025/08/08 20:49:15 </title>
  <desc>Image generated by PCBNEW </desc>
<g style="fill:#000000; fill-opacity:1.0000;stroke:#000000; stroke-opacity:1.0000;
stroke-linecap:round; stroke-linejoin:round;"
 transform="translate(0 0) scale(1 1)">
<path style="fill:#000000; fill-opacity:1.0000; stroke:none;fill-rule:evenodd;"
d="M 165.8100,105.3500
164.1100,105.3500
164.1100,103.6500
165.8100,103.6500
Z" /> 
</g>
<g style="fill:#000000; fill-opacity:1.0000; stroke:none;">
<circle cx="167.5000" cy="104.5000" r="0.8500" /> 
<circle cx="170.0400" cy="104.5000" r="0.8500" /> 
<circle cx="172.5800" cy="104.5000" r="0.8500" /> 
<circle cx="175.1200" cy="104.5000" r="0.8500" /> 
<circle cx="177.6600" cy="104.5000" r="0.8500" /> 
<path style="fill:#000000; fill-opacity:1.0000; stroke:none;fill-rule:evenodd;"
d="M 139.0900,83.2500
139.0900,81.6500
140.6900,81.6500
140.6900,83.2500
Z" /> 
<circle cx="139.8900" cy="84.9900" r="0.8000" /> 
<circle cx="139.8900" cy="87.5300" r="0.8000" /> 
<circle cx="139.8900" cy="90.0700" r="0.8000" /> 
<circle cx="139.8900" cy="92.6100" r="0.8000" /> 
<circle cx="139.8900" cy="95.1500" r="0.8000" /> 
<circle cx="139.8900" cy="97.6900" r="0.8000" /> 
<circle cx="139.8900" cy="100.2300" r="0.8000" /> 
<circle cx="139.8900" cy="102.7700" r="0.8000" /> 
<circle cx="139.8900" cy="105.3100" r="0.8000" /> 
<circle cx="139.8900" cy="107.8500" r="0.8000" /> 
<circle cx="139.8900" cy="110.3900" r="0.8000" /> 
<circle cx="139.8900" cy="112.9300" r="0.8000" /> 
<circle cx="139.8900" cy="115.4700" r="0.8000" /> 
<circle cx="139.8900" cy="118.0100" r="0.8000" /> 
<circle cx="155.1300" cy="118.0100" r="0.8000" /> 
<circle cx="155.1300" cy="115.4700" r="0.8000" /> 
<circle cx="155.1300" cy="112.9300" r="0.8000" /> 
<circle cx="155.1300" cy="110.3900" r="0.8000" /> 
<circle cx="155.1300" cy="107.8500" r="0.8000" /> 
<circle cx="155.1300" cy="105.3100" r="0.8000" /> 
<circle cx="155.1300" cy="102.7700" r="0.8000" /> 
<circle cx="155.1300" cy="100.2300" r="0.8000" /> 
<circle cx="155.1300" cy="97.6900" r="0.8000" /> 
<circle cx="155.1300" cy="95.1500" r="0.8000" /> 
<circle cx="155.1300" cy="92.6100" r="0.8000" /> 
<circle cx="155.1300" cy="90.0700" r="0.8000" /> 
<circle cx="155.1300" cy="87.5300" r="0.8000" /> 
<circle cx="155.1300" cy="84.9900" r="0.8000" /> 
<circle cx="155.1300" cy="82.4500" r="0.8000" /> 
<path style="fill:#000000; fill-opacity:1.0000; stroke:none;fill-rule:evenodd;"
d="M 112.0600,99.3500
110.3600,99.3500
110.3600,97.6500
112.0600,97.6500
Z" /> 
<circle cx="113.7500" cy="98.5000" r="0.8500" /> 
<circle cx="116.2900" cy="98.5000" r="0.8500" /> 
<circle cx="118.8300" cy="98.5000" r="0.8500" /> 
<circle cx="121.3700" cy="98.5000" r="0.8500" /> 
<circle cx="123.9100" cy="98.5000" r="0.8500" /> 
<circle cx="126.4500" cy="98.5000" r="0.8500" /> 
<circle cx="128.9900" cy="98.5000" r="0.8500" /> 
<circle cx="131.5300" cy="98.5000" r="0.8500" /> 
<path style="fill:#000000; fill-opacity:1.0000; stroke:none;fill-rule:evenodd;"
d="M 126.5500,111.6500
126.5500,109.6500
131.1500,109.6500
131.1500,111.6500
Z" /> 
</g>
<g style="fill:none; 
stroke:#000000; stroke-width:2.0000; stroke-opacity:1; 
stroke-linecap:round; stroke-linejoin:round;">
<path d="M127.7500 116.9500
L129.9500 116.9500
" />
<path d="M133.6500 112.4500
L133.6500 114.6500
" />
<path style="fill:#000000; fill-opacity:1.0000; stroke:none;fill-rule:evenodd;"
d="M 166.1500,79.2700
166.1500,77.5700
167.8500,77.5700
167.8500,79.2700
Z" /> 
</g>
<g style="fill:#000000; fill-opacity:1.0000; stroke:none;">
<circle cx="167.0000" cy="80.9600" r="0.8500" /> 
<circle cx="167.0000" cy="83.5000" r="0.8500" /> 
<circle cx="167.0000" cy="86.0400" r="0.8500" /> 
<path style="fill:#000000; fill-opacity:1.0000; stroke:none;fill-rule:evenodd;"
d="M 112.0600,74.3500
110.3600,74.3500
110.3600,72.6500
112.0600,72.6500
Z" /> 
<circle cx="113.7500" cy="73.5000" r="0.8500" /> 
<circle cx="116.2900" cy="73.5000" r="0.8500" /> 
<circle cx="118.8300" cy="73.5000" r="0.8500" /> 
<circle cx="121.3700" cy="73.5000" r="0.8500" /> 
<circle cx="158.0000" cy="103.5000" r="0.3000" /> 
</g>
<g style="fill:#000000; fill-opacity:1.0000; stroke:none;">
<circle cx="134.0300" cy="96.0000" r="0.3000" /> 
</g>
<g style="fill:#000000; fill-opacity:1.0000; stroke:none;">
<circle cx="136.8025" cy="109.1975" r="0.3000" /> 
</g>
<g style="fill:#000000; fill-opacity:1.0000; stroke:none;">
<circle cx="123.9100" cy="102.5000" r="0.3000" /> 
</g>
<g style="fill:none; 
stroke:#000000; stroke-width:0.2000; stroke-opacity:1; 
stroke-linecap:round; stroke-linejoin:round;">
<path d="M139.8900 87.5300
L155.1300 87.5300
" />
<path d="M128.8500 110.6500
L128.8500 110.1500
" />
</g>
<g style="fill:none; 
stroke:#000000; stroke-width:0.5000; stroke-opacity:1; 
stroke-linecap:round; stroke-linejoin:round;">
<path d="M153.8790 118.5282
L153.8790 116.7210
" />
<path d="M154.6118 119.2610
L153.8790 118.5282
" />
<path d="M153.8790 116.7210
L155.1300 115.4700
" />
<path d="M162.8990 119.2610
L154.6118 119.2610
" />
<path d="M177.6600 104.5000
L162.8990 119.2610
" />
</g>
<g style="fill:none; 
stroke:#000000; stroke-width:0.2000; stroke-opacity:1; 
stroke-linecap:round; stroke-linejoin:round;">
<path d="M134.0300 96.0000
L131.5300 98.5000
" />
<path d="M118.8300 98.5000
L122.1800 95.1500
" />
<path d="M122.1800 95.1500
L139.8900 95.1500
" />
<path d="M170.0400 104.5000
L156.5300 118.0100
" />
<path d="M156.5300 118.0100
L155.1300 118.0100
" />
<path d="M166.6110 84.8890
L166.5232 84.8890
" />
<path d="M165.8490 85.5632
L164.4368 85.5632
" />
<path d="M160.0000 90.0000
L160.0000 94.5000
" />
<path d="M164.4368 85.5632
L160.0000 90.0000
" />
<path d="M166.5232 84.8890
L165.8490 85.5632
" />
<path d="M167.0000 84.5000
L166.6110 84.8890
" />
<path d="M160.0000 94.5000
L156.8100 97.6900
" />
<path d="M167.0000 83.5000
L167.0000 84.5000
" />
<path d="M156.8100 97.6900
L155.1300 97.6900
" />
</g>
<g style="fill:none; 
stroke:#000000; stroke-width:0.5000; stroke-opacity:1; 
stroke-linecap:round; stroke-linejoin:round;">
<path d="M143.6810 101.5190
L155.1300 90.0700
" />
<path d="M166.7800 78.4200
L167.0000 78.4200
" />
<path d="M155.1300 90.0700
L166.7800 78.4200
" />
<path d="M111.2100 98.5000
L114.2290 101.5190
" />
<path d="M114.2290 101.5190
L143.6810 101.5190
" />
</g>
<g style="fill:none; 
stroke:#000000; stroke-width:0.2000; stroke-opacity:1; 
stroke-linecap:round; stroke-linejoin:round;">
<path d="M130.1410 99.6510
L137.9290 99.6510
" />
<path d="M137.9290 99.6510
L139.8900 97.6900
" />
<path d="M128.9900 98.5000
L130.1410 99.6510
" />
<path d="M167.0000 92.0000
L158.7700 100.2300
" />
<path d="M167.0000 86.0400
L167.0000 92.0000
" />
<path d="M158.7700 100.2300
L155.1300 100.2300
" />
<path d="M155.5861 109.2890
L146.0710 109.2890
" />
<path d="M171.4290 103.3490
L161.5260 103.3490
" />
<path d="M172.5800 104.5000
L171.4290 103.3490
" />
<path d="M146.0710 109.2890
L139.8900 115.4700
" />
<path d="M161.5260 103.3490
L155.5861 109.2890
" />
<path d="M123.9100 102.5000
L125.9100 104.5000
" />
<path d="M125.9100 104.5000
L132.1050 104.5000
" />
<path d="M167.5000 104.5000
L160.1710 111.8290
" />
<path d="M160.1710 111.8290
L146.0710 111.8290
" />
<path d="M146.0710 111.8290
L139.8900 118.0100
" />
<path d="M132.1050 104.5000
L136.8025 109.1975
" />
<path style="fill:#000000; fill-opacity:1.0000; stroke:none;fill-rule:evenodd;"
d="M 163.5530,103.9692
163.5988,104.0220
163.6100,104.0735
163.6100,104.2500
164.5270,104.2500
164.4941,104.3070
164.4600,104.4342
164.4600,104.5658
164.4941,104.6930
164.5270,104.7500
163.6100,104.7500
163.6100,105.3978
163.6164,105.4574
163.6164,105.4574
163.6666,105.5921
163.6666,105.5921
163.7528,105.7072
163.7528,105.7072
163.8679,105.7933
163.8679,105.7934
164.0026,105.8436
164.0026,105.8436
164.0622,105.8500
164.0622,105.8500
164.7100,105.8500
164.7100,104.9330
164.7670,104.9659
164.8942,105.0000
165.0258,105.0000
165.1530,104.9659
165.2100,104.9330
165.2100,105.8894
165.1903,105.9564
165.1737,105.9771
159.9586,111.1922
159.8973,111.2257
159.8709,111.2285
156.3647,111.2285
156.2977,111.2088
156.2519,111.1560
156.2420,111.0869
156.2542,111.0482
156.2854,110.9869
156.3352,110.8892
156.3985,110.6945
156.4305,110.4924
156.4305,110.2876
156.3985,110.0855
156.3985,110.0855
156.3691,109.9951
156.3352,109.8908
156.3352,109.8908
156.3352,109.8908
156.2423,109.7084
156.2317,109.6938
156.2093,109.6629
156.1858,109.5971
156.2016,109.5291
156.2219,109.5024
160.2669,105.4574
161.1133,104.6110
161.7385,103.9858
161.7998,103.9523
161.8261,103.9495
163.4860,103.9495
Z" /> 
<path style="fill:#000000; fill-opacity:1.0000; stroke:none;fill-rule:evenodd;"
d="M 153.9674,88.1502
154.0109,88.1982
154.0177,88.2116
154.1380,88.3772
154.2828,88.5220
154.4377,88.6346
154.4484,88.6423
154.5398,88.6889
154.5411,88.6895
154.5919,88.7375
154.6087,88.8053
154.5861,88.8714
154.5411,88.9105
154.4484,88.9577
154.2828,89.0780
154.1380,89.2228
154.0177,89.3884
153.9248,89.5708
153.8615,89.7655
153.8295,89.9676
153.8295,90.1724
153.8383,90.2280
153.8294,90.2973
153.8035,90.3351
143.4065,100.7322
143.3451,100.7657
143.3188,100.7685
141.2531,100.7685
141.1861,100.7488
141.1403,100.6960
141.1304,100.6269
141.1352,100.6062
141.1585,100.5345
141.1905,100.3324
141.1905,100.1276
141.1585,99.9255
141.1188,99.8035
141.0952,99.7308
141.0952,99.7308
141.0952,99.7308
141.0615,99.6646
141.0023,99.5484
140.9362,99.4575
140.8820,99.3828
140.7372,99.2380
140.5716,99.1177
140.5650,99.1143
140.4789,99.0705
140.4281,99.0225
140.4113,98.9547
140.4339,98.8886
140.4789,98.8495
140.5716,98.8023
140.7220,98.6930
140.7372,98.6820
140.7372,98.6820
140.7372,98.6820
140.8820,98.5372
140.8820,98.5372
140.8820,98.5372
140.9862,98.3937
141.0023,98.3716
141.0952,98.1892
141.1585,97.9945
141.1905,97.7924
141.1905,97.5876
141.1585,97.3855
141.0952,97.1908
141.0952,97.1908
141.0952,97.1908
141.0615,97.1246
141.0023,97.0084
140.9946,96.9977
140.8820,96.8428
140.7372,96.6980
140.5716,96.5777
140.5650,96.5743
140.4789,96.5305
140.4281,96.4825
140.4113,96.4147
140.4339,96.3486
140.4789,96.3095
140.5716,96.2623
140.6112,96.2335
140.7372,96.1420
140.7372,96.1420
140.7372,96.1420
140.8820,95.9972
140.8820,95.9972
140.8820,95.9972
140.9536,95.8987
141.0023,95.8316
141.0952,95.6492
141.1585,95.4545
141.1905,95.2524
141.1905,95.0476
141.1622,94.8687
141.1585,94.8455
141.1013,94.6695
141.0952,94.6508
141.0952,94.6508
141.0952,94.6508
141.0587,94.5791
141.0023,94.4684
140.9678,94.4209
140.8820,94.3028
140.7372,94.1580
140.5716,94.0377
140.5650,94.0343
140.4789,93.9905
140.4281,93.9425
140.4113,93.8747
140.4339,93.8086
140.4789,93.7695
140.5716,93.7223
140.5928,93.7069
140.7372,93.6020
140.7372,93.6020
140.7372,93.6020
140.8820,93.4572
140.8820,93.4572
140.8820,93.4572
140.9347,93.3846
141.0023,93.2916
141.0952,93.1092
141.1585,92.9145
141.1905,92.7124
141.1905,92.5076
141.1585,92.3055
141.0952,92.1108
141.0952,92.1108
141.0952,92.1108
141.0615,92.0446
141.0023,91.9284
140.9913,91.9133
140.8820,91.7628
140.7372,91.6180
140.5716,91.4977
140.4784,91.4502
140.4276,91.4022
140.4108,91.3344
140.4333,91.2683
140.4784,91.2292
140.5713,91.1819
140.7369,91.0616
140.7369,91.0616
140.8816,90.9169
140.8816,90.9169
141.0019,90.7513
141.0948,90.5690
141.1580,90.3744
141.1666,90.3200
140.3230,90.3200
140.3559,90.2630
140.3900,90.1358
140.3900,90.0042
140.3559,89.8770
140.3230,89.8200
141.1666,89.8200
141.1580,89.7656
141.0948,89.5710
141.0019,89.3886
140.8816,89.2231
140.8816,89.2231
140.7369,89.0784
140.5713,88.9581
140.4784,88.9108
140.4276,88.8628
140.4108,88.7950
140.4333,88.7288
140.4784,88.6898
140.4789,88.6895
140.5716,88.6423
140.5928,88.6269
140.7372,88.5220
140.7372,88.5220
140.7372,88.5220
140.8820,88.3772
140.8820,88.3772
140.8820,88.3772
141.0023,88.2116
141.0023,88.2116
141.0023,88.2116
141.0091,88.1982
141.0571,88.1474
141.1196,88.1305
153.9004,88.1305
Z" /> 
<path style="fill:#000000; fill-opacity:1.0000; stroke:none;fill-rule:evenodd;"
d="M 165.6408,80.7100
166.5670,80.7100
166.5341,80.7670
166.5000,80.8942
166.5000,81.0258
166.5341,81.1530
166.5670,81.2100
165.6728,81.2100
165.6832,81.2761
165.6832,81.2761
165.7489,81.4782
165.8454,81.6676
165.9703,81.8395
165.9703,81.8395
166.1205,81.9897
166.1205,81.9897
166.2924,82.1146
166.3015,82.1192
166.3523,82.1672
166.3691,82.2350
166.3465,82.3012
166.3015,82.3402
166.2922,82.3449
166.1202,82.4699
165.9699,82.6202
165.8450,82.7922
165.7484,82.9816
165.6828,83.1838
165.6647,83.2979
165.6495,83.3937
165.6495,83.6063
165.6497,83.6075
165.6778,83.7849
165.6828,83.8162
165.7419,83.9984
165.7484,84.0184
165.8450,84.2078
165.9699,84.3798
165.9889,84.3988
166.0224,84.4601
166.0174,84.5298
165.9889,84.5741
165.6366,84.9264
165.5753,84.9599
165.5489,84.9627
164.5158,84.9627
164.3577,84.9627
164.2050,85.0037
164.2050,85.0037
164.2050,85.0037
164.2050,85.0037
164.1549,85.0326
164.1549,85.0326
164.1146,85.0558
164.0680,85.0827
164.0680,85.0827
159.5195,89.6313
159.5195,89.6313
159.4714,89.7145
159.4714,89.7145
159.4404,89.7682
159.3995,89.9209
159.3995,89.9209
159.3995,90.0890
159.3995,90.0891
159.3995,94.1999
159.3798,94.2669
159.3632,94.2876
156.5976,97.0532
156.5707,97.0679
156.5448,97.0845
156.5386,97.0854
156.5363,97.0867
156.5099,97.0895
156.3596,97.0895
156.2926,97.0698
156.2491,97.0218
156.2423,97.0084
156.1220,96.8428
155.9772,96.6980
155.8116,96.5777
155.8050,96.5743
155.7189,96.5305
155.6681,96.4825
155.6513,96.4147
155.6739,96.3486
155.7189,96.3095
155.8116,96.2623
155.8512,96.2335
155.9772,96.1420
155.9772,96.1420
155.9772,96.1420
156.1220,95.9972
156.1220,95.9972
156.1220,95.9972
156.1936,95.8987
156.2423,95.8316
156.3352,95.6492
156.3985,95.4545
156.4305,95.2524
156.4305,95.0476
156.4022,94.8687
156.3985,94.8455
156.3413,94.6695
156.3352,94.6508
156.3352,94.6508
156.3352,94.6508
156.2987,94.5791
156.2423,94.4684
156.2078,94.4209
156.1220,94.3028
155.9772,94.1580
155.8116,94.0377
155.8050,94.0343
155.7189,93.9905
155.6681,93.9425
155.6513,93.8747
155.6739,93.8086
155.7189,93.7695
155.8116,93.7223
155.8328,93.7069
155.9772,93.6020
155.9772,93.6020
155.9772,93.6020
156.1220,93.4572
156.1220,93.4572
156.1220,93.4572
156.1747,93.3846
156.2423,93.2916
156.3352,93.1092
156.3985,92.9145
156.4305,92.7124
156.4305,92.5076
156.3985,92.3055
156.3352,92.1108
156.3352,92.1108
156.3352,92.1108
156.3015,92.0446
156.2423,91.9284
156.2313,91.9133
156.1220,91.7628
155.9772,91.6180
155.8116,91.4977
155.8050,91.4943
155.7189,91.4505
155.6681,91.4025
155.6513,91.3347
155.6739,91.2686
155.7189,91.2295
155.8116,91.1823
155.8328,91.1669
155.9772,91.0620
155.9772,91.0620
155.9772,91.0620
156.1220,90.9172
156.1220,90.9172
156.1220,90.9172
156.1747,90.8446
156.2423,90.7516
156.3352,90.5692
156.3985,90.3745
156.4305,90.1724
156.4305,89.9676
156.4217,89.9120
156.4306,89.8427
156.4565,89.8049
165.5220,80.7394
165.5833,80.7059
Z" /> 
<path style="fill:#000000; fill-opacity:1.0000; stroke:none;fill-rule:evenodd;"
d="M 187.0044,71.5008
187.2046,71.5151
187.2221,71.5176
187.4138,71.5594
187.4308,71.5643
187.6146,71.6329
187.6307,71.6403
187.8029,71.7343
187.8178,71.7438
187.9749,71.8614
187.9882,71.8730
188.1270,72.0118
188.1386,72.0251
188.2561,72.1822
188.2657,72.1971
188.3597,72.3693
188.3671,72.3854
188.4357,72.5692
188.4406,72.5862
188.4824,72.7779
188.4849,72.7954
188.4992,72.9956
188.4995,73.0044
188.4995,122.9956
188.4992,123.0044
188.4849,123.2046
188.4824,123.2221
188.4406,123.4138
188.4357,123.4308
188.3671,123.6146
188.3597,123.6307
188.2657,123.8029
188.2561,123.8178
188.1386,123.9749
188.1270,123.9882
187.9882,124.1270
187.9749,124.1386
187.8178,124.2561
187.8029,124.2657
187.6307,124.3597
187.6146,124.3671
187.4308,124.4357
187.4138,124.4406
187.2221,124.4824
187.2046,124.4849
187.0238,124.4978
187.0044,124.4992
186.9956,124.4995
99.5044,124.4995
99.4956,124.4992
99.4736,124.4976
99.2954,124.4849
99.2779,124.4824
99.0862,124.4406
99.0692,124.4357
98.8854,124.3671
98.8693,124.3597
98.6971,124.2657
98.6822,124.2561
98.5251,124.1386
98.5118,124.1270
98.3730,123.9882
98.3614,123.9749
98.2438,123.8178
98.2343,123.8029
98.1403,123.6307
98.1329,123.6146
98.0721,123.4516
98.0643,123.4308
98.0594,123.4138
98.0176,123.2221
98.0151,123.2046
98.0008,123.0044
98.0005,122.9956
98.0005,120.8937
100.6495,120.8937
100.6495,121.1063
100.6828,121.3162
100.7484,121.5184
100.8450,121.7078
100.9699,121.8798
101.1202,122.0301
101.2922,122.1550
101.2922,122.1550
101.2922,122.1551
101.4816,122.2516
101.6838,122.3172
101.8937,122.3505
101.8937,122.3505
102.1063,122.3505
102.1063,122.3505
102.3162,122.3172
102.5184,122.2516
102.7078,122.1551
102.7298,122.1391
102.8798,122.0301
102.8798,122.0301
102.8798,122.0301
103.0301,121.8798
103.0301,121.8798
103.0301,121.8798
103.1550,121.7078
103.1550,121.7078
103.1551,121.7078
103.2516,121.5184
103.3172,121.3162
103.3505,121.1063
103.3505,120.8937
183.1495,120.8937
183.1495,121.1063
183.1828,121.3162
183.2484,121.5184
183.3450,121.7078
183.4699,121.8798
183.6202,122.0301
183.7922,122.1550
183.7922,122.1550
183.7922,122.1551
183.9816,122.2516
184.1838,122.3172
184.3937,122.3505
184.3937,122.3505
184.6063,122.3505
184.6063,122.3505
184.8162,122.3172
185.0184,122.2516
185.2078,122.1551
185.2298,122.1391
185.3798,122.0301
185.3798,122.0301
185.3798,122.0301
185.5301,121.8798
185.5301,121.8798
185.5301,121.8798
185.6550,121.7078
185.6550,121.7078
185.6551,121.7078
185.7516,121.5184
185.8172,121.3162
185.8505,121.1063
185.8505,120.8937
185.8172,120.6838
185.7516,120.4816
185.6551,120.2922
185.6550,120.2922
185.6550,120.2922
185.5301,120.1202
185.3798,119.9699
185.2078,119.8450
185.0184,119.7484
185.0184,119.7484
185.0184,119.7484
184.8162,119.6828
184.8162,119.6828
184.8162,119.6828
184.6550,119.6572
184.6063,119.6495
184.3937,119.6495
184.3450,119.6572
184.1838,119.6828
183.9816,119.7484
183.7922,119.8450
183.6202,119.9699
183.4699,120.1202
183.3450,120.2922
183.2484,120.4816
183.1828,120.6838
183.1495,120.8937
103.3505,120.8937
103.3172,120.6838
103.2516,120.4816
103.1551,120.2922
103.1550,120.2922
103.1550,120.2922
103.0301,120.1202
102.8798,119.9699
102.7078,119.8450
102.5184,119.7484
102.5184,119.7484
102.5184,119.7484
102.3162,119.6828
102.3162,119.6828
102.3162,119.6828
102.1550,119.6572
102.1063,119.6495
101.8937,119.6495
101.8450,119.6572
101.6838,119.6828
101.4816,119.7484
101.2922,119.8450
101.1202,119.9699
100.9699,120.1202
100.8450,120.2922
100.7484,120.4816
100.6828,120.6838
100.6495,120.8937
98.0005,120.8937
98.0005,116.7000
126.2709,116.7000
127.3170,116.7000
127.2841,116.7570
127.2500,116.8842
127.2500,117.0158
127.2841,117.1430
127.3170,117.2000
126.2709,117.2000
126.2869,117.3012
126.3599,117.5258
126.4671,117.7362
126.6059,117.9272
126.7728,118.0941
126.9638,118.2329
127.1742,118.3401
127.3988,118.4131
127.3988,118.4131
127.6319,118.4500
128.6000,118.4500
128.6000,117.4500
129.1000,117.4500
129.1000,118.4500
130.0681,118.4500
130.3012,118.4131
130.5258,118.3401
130.7362,118.2329
130.9272,118.0941
131.0941,117.9272
131.2329,117.7362
131.3401,117.5258
131.4131,117.3012
131.4291,117.2000
130.3830,117.2000
130.4159,117.1430
130.4500,117.0158
130.4500,116.8842
130.4159,116.7570
130.3830,116.7000
131.4291,116.7000
131.4131,116.5988
131.3401,116.3742
131.2329,116.1638
131.0941,115.9728
130.9272,115.8059
130.7362,115.6671
130.5258,115.5599
130.3012,115.4869
130.3012,115.4869
130.0681,115.4500
129.1000,115.4500
129.1000,116.4500
128.6000,116.4500
128.6000,115.4500
127.6319,115.4500
127.3988,115.4869
127.1742,115.5599
126.9638,115.6671
126.7728,115.8059
126.6059,115.9728
126.4671,116.1638
126.3599,116.3742
126.2869,116.5988
126.2709,116.7000
98.0005,116.7000
98.0005,112.3319
132.1500,112.3319
132.1500,113.3000
133.1500,113.3000
133.1500,113.8000
132.1500,113.8000
132.1500,114.7681
132.1869,115.0012
132.2599,115.2258
132.3671,115.4362
132.5059,115.6272
132.6728,115.7941
132.8638,115.9329
133.0742,116.0401
133.2987,116.1131
133.2987,116.1131
133.4000,116.1291
133.4000,115.0830
133.4570,115.1159
133.5842,115.1500
133.7158,115.1500
133.8430,115.1159
133.9000,115.0830
133.9000,116.1291
134.0012,116.1131
134.0013,116.1131
134.2258,116.0401
134.4362,115.9329
134.6272,115.7941
134.7941,115.6272
134.9329,115.4362
135.0401,115.2258
135.1131,115.0012
135.1500,114.7681
135.1500,113.8000
134.1500,113.8000
134.1500,113.3000
135.1500,113.3000
135.1500,112.3319
135.1131,112.0988
135.0401,111.8742
134.9329,111.6638
134.7941,111.4728
134.6272,111.3059
134.4362,111.1671
134.2258,111.0599
134.0012,110.9869
133.9000,110.9709
133.9000,112.0170
133.8430,111.9841
133.7158,111.9500
133.5842,111.9500
133.4570,111.9841
133.4000,112.0170
133.4000,110.9709
133.2988,110.9869
133.0742,111.0599
132.8638,111.1671
132.6728,111.3059
132.5059,111.4728
132.3671,111.6638
132.2599,111.8742
132.1869,112.0988
132.1500,112.3319
98.0005,112.3319
98.0005,109.6021
126.0495,109.6021
126.0495,111.6979
126.0495,111.6979
126.0559,111.7575
126.1062,111.8923
126.1062,111.8923
126.1925,112.0075
126.1925,112.0075
126.3077,112.0938
126.3077,112.0938
126.4425,112.1441
126.4425,112.1441
126.4494,112.1448
126.5021,112.1505
131.1979,112.1505
131.2575,112.1441
131.3923,112.0938
131.5075,112.0075
131.5938,111.8923
131.6441,111.7575
131.6505,111.6979
131.6505,109.6021
131.6441,109.5425
131.5938,109.4077
131.5938,109.4077
131.5938,109.4077
131.5075,109.2925
131.5075,109.2925
131.3923,109.2062
131.3923,109.2062
131.2575,109.1559
131.2575,109.1559
131.1979,109.1495
131.1979,109.1495
131.1979,109.1495
131.1979,109.1495
126.5021,109.1495
126.5021,109.1495
126.4425,109.1559
126.3077,109.2062
126.3077,109.2062
126.1925,109.2925
126.1925,109.2925
126.1062,109.4077
126.1062,109.4077
126.0559,109.5425
126.0522,109.5773
126.0495,109.6021
126.0495,109.6021
98.0005,109.6021
98.0005,97.6021
109.8595,97.6021
109.8595,99.3979
109.8595,99.3979
109.8659,99.4575
109.9162,99.5923
109.9162,99.5923
110.0025,99.7075
110.0025,99.7075
110.1177,99.7938
110.1177,99.7938
110.2525,99.8441
110.2525,99.8441
110.2594,99.8448
110.3121,99.8505
111.4478,99.8505
111.5148,99.8702
111.5354,99.8868
113.7506,102.1020
113.7734,102.1172
113.8243,102.1512
113.8735,102.1841
113.9301,102.2075
114.0101,102.2407
114.1262,102.2638
114.1455,102.2676
114.1551,102.2695
114.1551,102.2695
114.1551,102.2695
114.3029,102.2695
122.9886,102.2695
123.0556,102.2892
123.1014,102.3420
123.1113,102.4111
123.1102,102.4177
123.1095,102.4212
123.1095,102.5788
123.1403,102.7335
123.1403,102.7335
123.2006,102.8792
123.2006,102.8792
123.2882,103.0103
123.2882,103.0103
123.3997,103.1218
123.3997,103.1218
123.5308,103.2094
123.5308,103.2094
123.6753,103.2692
123.6765,103.2697
123.7411,103.2826
123.8318,103.3006
123.8938,103.3330
123.8953,103.3346
125.4251,104.8644
125.4251,104.8644
125.4295,104.8687
125.4295,104.8687
125.5413,104.9805
125.5845,105.0055
125.6281,105.0306
125.6281,105.0306
125.6662,105.0526
125.6782,105.0596
125.8309,105.1005
131.8049,105.1005
131.8719,105.1202
131.8925,105.1368
135.9679,109.2122
136.0014,109.2735
136.0018,109.2757
136.0327,109.4310
136.0327,109.4310
136.0931,109.5767
136.0931,109.5767
136.1807,109.7078
136.1807,109.7078
136.2922,109.8193
136.2922,109.8193
136.4233,109.9069
136.4233,109.9069
136.5690,109.9673
136.5690,109.9673
136.7236,109.9980
136.7236,109.9980
136.7236,109.9980
136.8813,109.9980
136.8813,109.9980
137.0360,109.9673
137.1486,109.9206
137.1816,109.9069
137.1816,109.9069
137.1817,109.9069
137.3128,109.8193
137.4243,109.7078
137.5119,109.5767
137.5722,109.4310
137.6030,109.2764
137.6030,109.1187
137.6030,109.1187
137.6030,109.1187
137.5904,109.0552
137.5722,108.9640
137.5217,108.8420
137.5119,108.8184
137.5119,108.8183
137.4243,108.6872
137.4243,108.6872
137.3128,108.5757
137.3128,108.5757
137.1817,108.4881
137.1816,108.4881
137.0360,108.4278
137.0360,108.4278
136.8806,108.3969
136.8187,108.3645
136.8171,108.3630
132.5925,104.1384
132.5925,104.1384
132.4737,104.0195
132.4737,104.0195
132.3869,103.9694
132.3869,103.9694
132.3868,103.9694
132.3367,103.9404
132.1840,103.8995
132.0259,103.8995
132.0183,103.8995
132.0183,103.8995
126.2101,103.8995
126.1431,103.8798
126.1224,103.8632
124.7446,102.4853
124.7355,102.4687
124.7224,102.4551
124.7120,102.4256
124.7111,102.4240
124.7106,102.4218
124.7098,102.4177
124.7160,102.3481
124.7589,102.2929
124.8248,102.2697
124.8314,102.2695
138.5145,102.2695
138.5816,102.2892
138.6273,102.3420
138.6373,102.4111
138.6325,102.4318
138.6215,102.4655
138.6215,102.4655
138.5895,102.6676
138.5895,102.8724
138.6215,103.0745
138.6848,103.2692
138.7777,103.4516
138.8980,103.6172
139.0428,103.7620
139.1895,103.8685
139.2084,103.8823
139.2998,103.9289
139.3011,103.9295
139.3519,103.9775
139.3687,104.0453
139.3461,104.1114
139.3011,104.1505
139.2084,104.1977
139.0428,104.3180
138.8980,104.4628
138.7777,104.6284
138.6848,104.8108
138.6215,105.0055
138.5895,105.2076
138.5895,105.4124
138.6215,105.6145
138.6848,105.8092
138.7256,105.8894
138.7598,105.9564
138.7777,105.9916
138.8980,106.1572
139.0428,106.3020
139.1977,106.4146
139.2084,106.4223
139.2998,106.4689
139.3011,106.4695
139.3519,106.5175
139.3687,106.5853
139.3461,106.6514
139.3011,106.6905
139.2084,106.7377
139.0428,106.8580
138.8980,107.0028
138.7777,107.1684
138.6848,107.3508
138.6215,107.5455
138.5895,107.7476
138.5895,107.9524
138.6215,108.1545
138.6848,108.3492
138.7777,108.5316
138.8980,108.6972
139.0428,108.8420
139.1506,108.9203
139.2084,108.9623
139.2998,109.0089
139.3011,109.0095
139.3519,109.0575
139.3687,109.1253
139.3461,109.1914
139.3011,109.2305
139.2084,109.2777
139.0428,109.3980
138.8980,109.5428
138.7777,109.7084
138.6848,109.8908
138.6215,110.0855
138.5895,110.2876
138.5895,110.4924
138.6215,110.6945
138.6848,110.8892
138.7777,111.0716
138.8980,111.2372
139.0428,111.3820
139.1506,111.4603
139.2084,111.5023
139.2998,111.5489
139.3011,111.5495
139.3519,111.5975
139.3687,111.6653
139.3461,111.7314
139.3011,111.7705
139.2084,111.8177
139.0428,111.9380
138.8980,112.0828
138.7777,112.2484
138.6848,112.4308
138.6215,112.6255
138.5895,112.8276
138.5895,113.0324
138.6215,113.2345
138.6848,113.4292
138.7777,113.6116
138.8980,113.7772
139.0428,113.9220
139.1977,114.0346
139.2084,114.0423
139.2998,114.0889
139.3011,114.0895
139.3519,114.1375
139.3687,114.2053
139.3461,114.2714
139.3011,114.3105
139.2084,114.3577
139.0428,114.4780
138.8980,114.6228
138.7777,114.7884
138.6848,114.9708
138.6215,115.1655
138.5895,115.3676
138.5895,115.5724
138.6215,115.7745
138.6848,115.9692
138.7777,116.1516
138.8980,116.3172
139.0428,116.4620
139.1638,116.5499
139.2084,116.5823
139.2998,116.6289
139.3011,116.6295
139.3519,116.6775
139.3687,116.7453
139.3461,116.8114
139.3011,116.8505
139.2084,116.8977
139.0428,117.0180
138.8980,117.1628
138.7777,117.3284
138.6848,117.5108
138.6215,117.7055
138.5895,117.9076
138.5895,118.1124
138.6215,118.3145
138.6848,118.5092
138.7777,118.6916
138.8980,118.8572
139.0428,119.0020
139.1977,119.1146
139.2084,119.1223
139.3246,119.1815
139.3908,119.2152
139.3908,119.2152
139.3908,119.2152
139.4951,119.2491
139.5855,119.2785
139.6866,119.2945
139.7876,119.3105
139.7876,119.3105
139.9924,119.3105
139.9924,119.3105
140.1945,119.2785
140.3892,119.2152
140.5716,119.1223
140.7308,119.0066
140.7372,119.0020
140.7372,119.0020
140.7372,119.0020
140.8820,118.8572
140.8820,118.8572
140.8820,118.8572
140.9620,118.7471
141.0023,118.6916
141.0952,118.5092
141.1585,118.3145
141.1905,118.1124
141.1905,117.9076
141.1585,117.7055
141.1538,117.6912
141.1518,117.6213
141.1841,117.5652
146.2834,112.4658
146.3447,112.4323
146.3711,112.4295
153.7545,112.4295
153.8216,112.4492
153.8673,112.5020
153.8773,112.5711
153.8725,112.5918
153.8615,112.6255
153.8615,112.6255
153.8295,112.8276
153.8295,113.0324
153.8615,113.2345
153.9248,113.4292
154.0177,113.6116
154.1380,113.7772
154.2828,113.9220
154.4377,114.0346
154.4484,114.0423
154.5398,114.0889
154.5411,114.0895
154.5919,114.1375
154.6087,114.2053
154.5861,114.2714
154.5411,114.3105
154.4484,114.3577
154.2828,114.4780
154.1380,114.6228
154.0177,114.7884
153.9248,114.9708
153.8615,115.1655
153.8295,115.3676
153.8295,115.5724
153.8383,115.6280
153.8294,115.6973
153.8035,115.7351
153.2960,116.2426
153.2945,116.2449
153.2930,116.2471
153.2930,116.2471
153.2139,116.3655
153.2139,116.3655
153.1573,116.5021
153.1573,116.5021
153.1285,116.6471
153.1285,116.6471
153.1285,118.6021
153.1285,118.6021
153.1285,118.6021
153.1573,118.7471
153.1573,118.7471
153.2139,118.8837
153.2139,118.8837
153.2285,118.9055
153.2285,118.9055
153.2285,118.9055
153.2960,119.0066
153.2961,119.0066
154.0289,119.7394
154.1334,119.8439
154.1334,119.8440
154.2563,119.9261
154.2563,119.9261
154.3929,119.9827
154.3929,119.9827
154.3929,119.9827
154.3929,119.9827
154.5379,120.0115
154.5379,120.0115
162.9729,120.0115
163.0705,119.9921
163.1179,119.9827
163.2545,119.9261
163.3037,119.8932
163.3774,119.8440
177.3512,105.8702
177.4125,105.8367
177.4583,105.8354
177.5537,105.8505
177.5537,105.8505
177.7663,105.8505
177.7663,105.8505
177.9762,105.8172
178.1784,105.7516
178.3678,105.6551
178.4545,105.5921
178.5398,105.5301
178.5398,105.5301
178.5398,105.5301
178.6901,105.3798
178.6901,105.3798
178.6901,105.3798
178.8150,105.2078
178.8150,105.2078
178.8151,105.2078
178.9116,105.0184
178.9772,104.8162
179.0105,104.6063
179.0105,104.3937
178.9772,104.1838
178.9116,103.9816
178.8151,103.7922
178.8150,103.7922
178.8150,103.7922
178.6901,103.6202
178.5398,103.4699
178.3678,103.3450
178.1784,103.2484
178.1784,103.2484
178.1784,103.2484
177.9762,103.1828
177.9762,103.1828
177.9762,103.1828
177.8150,103.1572
177.7663,103.1495
177.5537,103.1495
177.5050,103.1572
177.3438,103.1828
177.1416,103.2484
176.9522,103.3450
176.7802,103.4699
176.6299,103.6202
176.5049,103.7922
176.5005,103.8009
176.4525,103.8517
176.3847,103.8685
176.3186,103.8460
176.2795,103.8009
176.2750,103.7922
176.1501,103.6202
175.9998,103.4699
175.8278,103.3450
175.6384,103.2484
175.6384,103.2484
175.6384,103.2484
175.4362,103.1828
175.4362,103.1828
175.4362,103.1828
175.2750,103.1572
175.2263,103.1495
175.0137,103.1495
174.9650,103.1572
174.8038,103.1828
174.6016,103.2484
174.4122,103.3450
174.2402,103.4699
174.0899,103.6202
173.9649,103.7922
173.9605,103.8009
173.9125,103.8517
173.8447,103.8685
173.7786,103.8460
173.7395,103.8009
173.7351,103.7922
173.6101,103.6202
173.4598,103.4699
173.2878,103.3450
173.0984,103.2484
173.0984,103.2484
173.0984,103.2484
172.8962,103.1828
172.8962,103.1828
172.8962,103.1828
172.7350,103.1572
172.6863,103.1495
172.4737,103.1495
172.4450,103.1540
172.2638,103.1828
172.2215,103.1965
172.1516,103.1985
172.0955,103.1662
171.9166,102.9874
171.9166,102.9874
171.7977,102.8685
171.7977,102.8685
171.6932,102.8081
171.6932,102.8081
171.6608,102.7894
171.6608,102.7894
171.6608,102.7894
171.5081,102.7485
171.3499,102.7485
171.3423,102.7485
171.3423,102.7485
161.6127,102.7485
161.6127,102.7485
161.6051,102.7485
161.4470,102.7485
161.3706,102.7690
161.2943,102.7894
161.2943,102.7894
161.1573,102.8685
161.1573,102.8685
156.5616,107.4642
156.5003,107.4977
156.4306,107.4927
156.3747,107.4508
156.3560,107.4148
156.3352,107.3508
156.2423,107.1684
156.2346,107.1577
156.1220,107.0028
155.9772,106.8580
155.8116,106.7377
155.8050,106.7343
155.7189,106.6905
155.6681,106.6425
155.6513,106.5747
155.6739,106.5086
155.7189,106.4695
155.8116,106.4223
155.8328,106.4069
155.9772,106.3020
155.9772,106.3020
155.9772,106.3020
156.1220,106.1572
156.1220,106.1572
156.1220,106.1572
156.1747,106.0846
156.2423,105.9916
156.3352,105.8092
156.3985,105.6145
156.4305,105.4124
156.4305,105.2076
156.4135,105.1005
156.3985,105.0055
156.3526,104.8644
156.3352,104.8108
156.3352,104.8108
156.3352,104.8108
156.3015,104.7446
156.2423,104.6284
156.1968,104.5658
156.1220,104.4628
155.9772,104.3180
155.8116,104.1977
155.7842,104.1838
155.7189,104.1505
155.6681,104.1025
155.6513,104.0347
155.6739,103.9686
155.7189,103.9295
155.8116,103.8823
155.8616,103.8460
155.9772,103.7620
155.9772,103.7620
155.9772,103.7620
156.1220,103.6172
156.1220,103.6172
156.1220,103.6172
156.1747,103.5446
156.2423,103.4516
156.3352,103.2692
156.3985,103.0745
156.4305,102.8724
156.4305,102.6676
156.3985,102.4655
156.3985,102.4655
156.3454,102.3021
156.3352,102.2708
156.3352,102.2708
156.3352,102.2708
156.3015,102.2046
156.2423,102.0884
156.2346,102.0777
156.1220,101.9228
155.9772,101.7780
155.8116,101.6577
155.8050,101.6543
155.7189,101.6105
155.6681,101.5625
155.6513,101.4947
155.6739,101.4286
155.7189,101.3895
155.8116,101.3423
155.8328,101.3269
155.9772,101.2220
155.9772,101.2220
155.9772,101.2220
156.1220,101.0772
156.1220,101.0772
156.1220,101.0772
156.2423,100.9116
156.2423,100.9116
156.2423,100.9116
156.2491,100.8982
156.2971,100.8474
156.3596,100.8305
158.6833,100.8305
158.6833,100.8305
158.6909,100.8305
158.8491,100.8305
158.8491,100.8305
159.0018,100.7896
159.0519,100.7606
159.1387,100.7105
159.2505,100.5987
159.2505,100.5987
159.2607,100.5885
159.2607,100.5885
167.4805,92.3687
167.5596,92.2318
167.6005,92.0791
167.6005,91.9209
167.6005,91.9133
167.6005,91.9133
167.6005,87.3257
167.6202,87.2587
167.6682,87.2152
167.7078,87.1951
167.7078,87.1951
167.7078,87.1951
167.7992,87.1287
167.8798,87.0701
167.8798,87.0701
167.8798,87.0701
168.0301,86.9198
168.0301,86.9198
168.0301,86.9198
168.1550,86.7478
168.1550,86.7478
168.1551,86.7478
168.2516,86.5584
168.3172,86.3562
168.3505,86.1463
168.3505,85.9337
168.3172,85.7238
168.2516,85.5216
168.1551,85.3322
168.1550,85.3322
168.1550,85.3322
168.0301,85.1602
167.8798,85.0099
167.7078,84.8849
167.7078,84.8849
167.6990,84.8805
167.6483,84.8325
167.6315,84.7647
167.6540,84.6985
167.6991,84.6595
167.7078,84.6551
167.8192,84.5741
167.8798,84.5301
167.8798,84.5301
167.8798,84.5301
168.0301,84.3798
168.0301,84.3798
168.0301,84.3798
168.1550,84.2078
168.1550,84.2078
168.1551,84.2078
168.2516,84.0184
168.3172,83.8162
168.3505,83.6063
168.3505,83.3937
168.3172,83.1838
168.2516,82.9816
168.1551,82.7922
168.1550,82.7922
168.1550,82.7922
168.0301,82.6202
167.8798,82.4699
167.7078,82.3449
167.6985,82.3402
167.6477,82.2922
167.6309,82.2244
167.6534,82.1583
167.6985,82.1192
167.7076,82.1146
167.8795,81.9897
167.8795,81.9897
168.0297,81.8395
168.0297,81.8395
168.1546,81.6676
168.2511,81.4782
168.3168,81.2761
168.3168,81.2761
168.3272,81.2100
167.4330,81.2100
167.4659,81.1530
167.5000,81.0258
167.5000,80.8942
167.4659,80.7670
167.4330,80.7100
168.3272,80.7100
168.3168,80.6439
168.3168,80.6439
168.2511,80.4418
168.1546,80.2524
168.0297,80.0805
168.0297,80.0805
167.9161,79.9669
167.8826,79.9055
167.8876,79.8358
167.9294,79.7799
167.9604,79.7630
168.0923,79.7138
168.2075,79.6275
168.2938,79.5123
168.3441,79.3775
168.3505,79.3179
168.3505,77.5221
168.3441,77.4625
168.3023,77.3505
168.2938,77.3277
168.2938,77.3277
168.2075,77.2125
168.2075,77.2125
168.0923,77.1262
168.0923,77.1262
167.9575,77.0759
167.9575,77.0759
167.8979,77.0695
167.8979,77.0695
167.8979,77.0695
167.8979,77.0695
166.1021,77.0695
166.1021,77.0695
166.0425,77.0759
165.9077,77.1262
165.9077,77.1262
165.7925,77.2125
165.7925,77.2125
165.7062,77.3277
165.7062,77.3277
165.6559,77.4625
165.6495,77.5221
165.6495,77.5221
165.6495,77.5221
165.6495,78.4378
165.6298,78.5048
165.6132,78.5254
156.6409,87.4977
156.5796,87.5312
156.5099,87.5262
156.4540,87.4843
156.4308,87.4294
156.4305,87.4277
156.4305,87.4276
156.3985,87.2255
156.3352,87.0308
156.3352,87.0308
156.3352,87.0308
156.3015,86.9646
156.2423,86.8484
156.2346,86.8377
156.1220,86.6828
155.9772,86.5380
155.8116,86.4177
155.7184,86.3702
155.6676,86.3222
155.6508,86.2544
155.6733,86.1883
155.7184,86.1492
155.8113,86.1019
155.9769,85.9816
155.9769,85.9816
156.1216,85.8369
156.1216,85.8369
156.2419,85.6713
156.3348,85.4890
156.3980,85.2944
156.4066,85.2400
155.5630,85.2400
155.5959,85.1830
155.6300,85.0558
155.6300,84.9242
155.5959,84.7970
155.5630,84.7400
156.4066,84.7400
156.3980,84.6856
156.3348,84.4910
156.2419,84.3087
156.1216,84.1431
156.1216,84.1431
155.9769,83.9984
155.8113,83.8781
155.7184,83.8308
155.6676,83.7828
155.6508,83.7150
155.6733,83.6488
155.7184,83.6098
155.7253,83.6063
155.8116,83.5623
155.8328,83.5469
155.9772,83.4420
155.9772,83.4420
155.9772,83.4420
156.1220,83.2972
156.1220,83.2972
156.1220,83.2972
156.2044,83.1838
156.2423,83.1316
156.3352,82.9492
156.3985,82.7545
156.4305,82.5524
156.4305,82.3476
156.3985,82.1455
156.3352,81.9508
156.3352,81.9508
156.3352,81.9508
156.2785,81.8395
156.2423,81.7684
156.2346,81.7577
156.1220,81.6028
155.9772,81.4580
155.8116,81.3377
155.8116,81.3377
155.8116,81.3377
155.7547,81.3087
155.6292,81.2448
155.4345,81.1815
155.2600,81.1539
155.2324,81.1495
155.0276,81.1495
155.0033,81.1534
154.8255,81.1815
154.6308,81.2448
154.4484,81.3377
154.2828,81.4580
154.1380,81.6028
154.0177,81.7684
153.9248,81.9508
153.8615,82.1455
153.8295,82.3476
153.8295,82.5524
153.8615,82.7545
153.9248,82.9492
154.0177,83.1316
154.1380,83.2972
154.2828,83.4420
154.4377,83.5546
154.4484,83.5623
154.5204,83.5990
154.5416,83.6098
154.5924,83.6578
154.6092,83.7256
154.5867,83.7917
154.5416,83.8308
154.4486,83.8781
154.2831,83.9984
154.2831,83.9984
154.1384,84.1431
154.1384,84.1431
154.0181,84.3087
153.9252,84.4910
153.8620,84.6856
153.8534,84.7400
154.6970,84.7400
154.6641,84.7970
154.6300,84.9242
154.6300,85.0558
154.6641,85.1830
154.6970,85.2400
153.8534,85.2400
153.8620,85.2944
153.9252,85.4890
154.0181,85.6713
154.1384,85.8369
154.1384,85.8369
154.2831,85.9816
154.4487,86.1019
154.5416,86.1492
154.5924,86.1972
154.6092,86.2650
154.5867,86.3312
154.5416,86.3702
154.4484,86.4177
154.2828,86.5380
154.1380,86.6828
154.0177,86.8484
154.0109,86.8618
153.9629,86.9126
153.9004,86.9295
141.1196,86.9295
141.0526,86.9098
141.0091,86.8618
141.0023,86.8484
140.8820,86.6828
140.7372,86.5380
140.5716,86.4177
140.5650,86.4143
140.4789,86.3705
140.4281,86.3225
140.4113,86.2547
140.4339,86.1886
140.4789,86.1495
140.5716,86.1023
140.5928,86.0869
140.7372,85.9820
140.7372,85.9820
140.7372,85.9820
140.8820,85.8372
140.8820,85.8372
140.8820,85.8372
140.9644,85.7238
141.0023,85.6716
141.0952,85.4892
141.1585,85.2945
141.1905,85.0924
141.1905,84.8876
141.1710,84.7647
141.1585,84.6855
141.1060,84.5241
141.0952,84.4908
141.0952,84.4908
141.0952,84.4908
141.0024,84.3087
141.0023,84.3084
140.9946,84.2977
140.8820,84.1428
140.7372,83.9980
140.7009,83.9717
140.6583,83.9163
140.6523,83.8467
140.6849,83.7849
140.7457,83.7506
140.7606,83.7481
140.7975,83.7441
140.9323,83.6938
140.9323,83.6938
140.9323,83.6938
141.0475,83.6075
141.1338,83.4923
141.1841,83.3575
141.1905,83.2979
141.1905,81.6021
141.1841,81.5425
141.1338,81.4077
141.1338,81.4077
141.1338,81.4077
141.0475,81.2925
141.0475,81.2925
140.9323,81.2062
140.9323,81.2062
140.7975,81.1559
140.7975,81.1559
140.7379,81.1495
140.7379,81.1495
140.7379,81.1495
140.7379,81.1495
139.0421,81.1495
139.0421,81.1495
138.9825,81.1559
138.8477,81.2062
138.8477,81.2062
138.7325,81.2925
138.7325,81.2925
138.6462,81.4077
138.6462,81.4077
138.5959,81.5425
138.5895,81.6021
138.5895,81.6021
138.5895,81.6021
138.5895,83.2979
138.5895,83.2979
138.5959,83.3575
138.6462,83.4923
138.6462,83.4923
138.7325,83.6075
138.7325,83.6075
138.8477,83.6938
138.8477,83.6938
138.8926,83.7106
138.9825,83.7441
139.0194,83.7481
139.0840,83.7748
139.1238,83.8322
139.1263,83.9020
139.0907,83.9621
139.0791,83.9717
139.0428,83.9980
138.8980,84.1428
138.7777,84.3084
138.6848,84.4908
138.6215,84.6855
138.5895,84.8876
138.5895,85.0924
138.6215,85.2945
138.6848,85.4892
138.7777,85.6716
138.8980,85.8372
139.0428,85.9820
139.1977,86.0946
139.2084,86.1023
139.2947,86.1463
139.3011,86.1495
139.3519,86.1975
139.3687,86.2653
139.3461,86.3314
139.3011,86.3705
139.2084,86.4177
139.0428,86.5380
138.8980,86.6828
138.7777,86.8484
138.6848,87.0308
138.6215,87.2255
138.5895,87.4276
138.5895,87.6324
138.6215,87.8345
138.6848,88.0292
138.7777,88.2116
138.8980,88.3772
139.0428,88.5220
139.1977,88.6346
139.2084,88.6423
139.2804,88.6790
139.3016,88.6898
139.3524,88.7378
139.3692,88.8056
139.3467,88.8717
139.3016,88.9108
139.2087,88.9581
139.0431,89.0784
139.0431,89.0784
138.8984,89.2231
138.8984,89.2231
138.7781,89.3886
138.6852,89.5710
138.6220,89.7656
138.6134,89.8200
139.4570,89.8200
139.4241,89.8770
139.3900,90.0042
139.3900,90.1358
139.4241,90.2630
139.4570,90.3200
138.6134,90.3200
138.6220,90.3744
138.6852,90.5690
138.7781,90.7513
138.8984,90.9169
138.8984,90.9169
139.0431,91.0616
139.2087,91.1819
139.3016,91.2292
139.3524,91.2772
139.3692,91.3450
139.3467,91.4112
139.3016,91.4502
139.2084,91.4977
139.0428,91.6180
138.8980,91.7628
138.7777,91.9284
138.6848,92.1108
138.6215,92.3055
138.5895,92.5076
138.5895,92.7124
138.6215,92.9145
138.6848,93.1092
138.7777,93.2916
138.8980,93.4572
139.0428,93.6020
139.1977,93.7146
139.2084,93.7223
139.2998,93.7689
139.3011,93.7695
139.3519,93.8175
139.3687,93.8853
139.3461,93.9514
139.3011,93.9905
139.2084,94.0377
139.0428,94.1580
138.8980,94.3028
138.7777,94.4684
138.7709,94.4818
138.7229,94.5326
138.6604,94.5495
122.1009,94.5495
122.0600,94.5605
122.0600,94.5605
122.0228,94.5705
121.9482,94.5904
121.9482,94.5904
121.8113,94.6695
121.8113,94.6695
121.6995,94.7813
119.3145,97.1662
119.2532,97.1997
119.1885,97.1965
119.1462,97.1828
119.0063,97.1606
118.9363,97.1495
118.7237,97.1495
118.6750,97.1572
118.5138,97.1828
118.3116,97.2484
118.1222,97.3450
117.9502,97.4699
117.7999,97.6202
117.6749,97.7922
117.6705,97.8009
117.6225,97.8517
117.5547,97.8685
117.4886,97.8460
117.4495,97.8009
117.4450,97.7922
117.3201,97.6202
117.1698,97.4699
116.9978,97.3450
116.8084,97.2484
116.8084,97.2484
116.8084,97.2484
116.6062,97.1828
116.6062,97.1828
116.6062,97.1828
116.4450,97.1572
116.3963,97.1495
116.1837,97.1495
116.1350,97.1572
115.9738,97.1828
115.7716,97.2484
115.5822,97.3450
115.4102,97.4699
115.2599,97.6202
115.1349,97.7922
115.1302,97.8015
115.0822,97.8523
115.0144,97.8691
114.9483,97.8465
114.9092,97.8015
114.9046,97.7924
114.7797,97.6205
114.7797,97.6205
114.6295,97.4703
114.6295,97.4703
114.4576,97.3454
114.2682,97.2489
114.0661,97.1832
114.0000,97.1728
114.0000,98.0670
113.9430,98.0341
113.8158,98.0000
113.6842,98.0000
113.5570,98.0341
113.5000,98.0670
113.5000,97.1728
113.5000,97.1728
113.4339,97.1832
113.2318,97.2489
113.0424,97.3454
112.8705,97.4703
112.7569,97.5839
112.6955,97.6174
112.6258,97.6124
112.5699,97.5706
112.5530,97.5396
112.5038,97.4077
112.5038,97.4077
112.4175,97.2925
112.4175,97.2925
112.3023,97.2062
112.3023,97.2062
112.1675,97.1559
112.1675,97.1559
112.1079,97.1495
112.1079,97.1495
112.1079,97.1495
112.1079,97.1495
110.3121,97.1495
110.3121,97.1495
110.2525,97.1559
110.1177,97.2062
110.1177,97.2062
110.0025,97.2925
110.0025,97.2925
109.9162,97.4077
109.9162,97.4077
109.8659,97.5425
109.8595,97.6021
109.8595,97.6021
98.0005,97.6021
98.0005,75.3937
101.1495,75.3937
101.1495,75.6063
101.1828,75.8162
101.1939,75.8505
101.2484,76.0184
101.3450,76.2078
101.4699,76.3798
101.6202,76.5301
101.7922,76.6550
101.7922,76.6550
101.7922,76.6551
101.9816,76.7516
102.1838,76.8172
102.3937,76.8505
102.3937,76.8505
102.6063,76.8505
102.6063,76.8505
102.8162,76.8172
103.0184,76.7516
103.2078,76.6551
103.2298,76.6391
103.3798,76.5301
103.3798,76.5301
103.3798,76.5301
103.5301,76.3798
103.5301,76.3798
103.5301,76.3798
103.6550,76.2078
103.6550,76.2078
103.6551,76.2078
103.7516,76.0184
103.7921,75.8937
183.1495,75.8937
183.1495,76.1063
183.1828,76.3162
183.2034,76.3798
183.2484,76.5184
183.3450,76.7078
183.4699,76.8798
183.6202,77.0301
183.7922,77.1550
183.7922,77.1550
183.7922,77.1551
183.9816,77.2516
184.1838,77.3172
184.3937,77.3505
184.3937,77.3505
184.6063,77.3505
184.6063,77.3505
184.8162,77.3172
185.0184,77.2516
185.2078,77.1551
185.2475,77.1262
185.3798,77.0301
185.3798,77.0301
185.3798,77.0301
185.5301,76.8798
185.5301,76.8798
185.5301,76.8798
185.6550,76.7078
185.6550,76.7078
185.6551,76.7078
185.7516,76.5184
185.8172,76.3162
185.8505,76.1063
185.8505,75.8937
185.8172,75.6838
185.7516,75.4816
185.6551,75.2922
185.6550,75.2922
185.6550,75.2922
185.5301,75.1202
185.3798,74.9699
185.2078,74.8450
185.0184,74.7484
185.0184,74.7484
185.0184,74.7484
184.8162,74.6828
184.8162,74.6828
184.8162,74.6828
184.6413,74.6550
184.6063,74.6495
184.3937,74.6495
184.3587,74.6550
184.1838,74.6828
183.9816,74.7484
183.7922,74.8450
183.6202,74.9699
183.4699,75.1202
183.3450,75.2922
183.2484,75.4816
183.1828,75.6838
183.1618,75.8162
183.1495,75.8937
103.7921,75.8937
103.8172,75.8162
103.8505,75.6063
103.8505,75.3937
103.8172,75.1838
103.7516,74.9816
103.6551,74.7922
103.6550,74.7922
103.6550,74.7922
103.5301,74.6202
103.3798,74.4699
103.2078,74.3450
103.0184,74.2484
103.0184,74.2484
103.0184,74.2484
102.8162,74.1828
102.8162,74.1828
102.8162,74.1828
102.6347,74.1540
102.6063,74.1495
102.3937,74.1495
102.3653,74.1540
102.1838,74.1828
101.9816,74.2484
101.7922,74.3450
101.6202,74.4699
101.4699,74.6202
101.3450,74.7922
101.2484,74.9816
101.1828,75.1838
101.1495,75.3937
98.0005,75.3937
98.0005,73.0044
98.0008,72.9956
98.0052,72.9341
98.0151,72.7954
98.0176,72.7779
98.0559,72.6021
109.8595,72.6021
109.8595,74.3979
109.8595,74.3979
109.8659,74.4575
109.9162,74.5923
109.9162,74.5923
110.0025,74.7075
110.0025,74.7075
110.1177,74.7938
110.1177,74.7938
110.2525,74.8441
110.2525,74.8441
110.2594,74.8448
110.3121,74.8505
112.1079,74.8505
112.1675,74.8441
112.3023,74.7938
112.4175,74.7075
112.5038,74.5923
112.5528,74.4609
112.5947,74.4050
112.6601,74.3806
112.7284,74.3954
112.7567,74.4166
112.8702,74.5301
113.0422,74.6550
113.0422,74.6550
113.0422,74.6551
113.2316,74.7516
113.4338,74.8172
113.6437,74.8505
113.6437,74.8505
113.8563,74.8505
113.8563,74.8505
114.0662,74.8172
114.2684,74.7516
114.4578,74.6551
114.5441,74.5923
114.6298,74.5301
114.6298,74.5301
114.6298,74.5301
114.7801,74.3798
114.7801,74.3798
114.7801,74.3798
114.9050,74.2078
114.9050,74.2078
114.9051,74.2078
114.9095,74.1991
114.9575,74.1483
115.0253,74.1315
115.0914,74.1540
115.1305,74.1991
115.1350,74.2078
115.2599,74.3798
115.4102,74.5301
115.5822,74.6550
115.5822,74.6550
115.5822,74.6551
115.7716,74.7516
115.9738,74.8172
116.1837,74.8505
116.1837,74.8505
116.3963,74.8505
116.3963,74.8505
116.6062,74.8172
116.8084,74.7516
116.9978,74.6551
117.0841,74.5923
117.1698,74.5301
117.1698,74.5301
117.1698,74.5301
117.3201,74.3798
117.3201,74.3798
117.3201,74.3798
117.4450,74.2078
117.4450,74.2078
117.4451,74.2078
117.4495,74.1991
117.4975,74.1483
117.5653,74.1315
117.6314,74.1540
117.6705,74.1991
117.6750,74.2078
117.7999,74.3798
117.9502,74.5301
118.1222,74.6550
118.1222,74.6550
118.1222,74.6551
118.3116,74.7516
118.5138,74.8172
118.7237,74.8505
118.7237,74.8505
118.9363,74.8505
118.9363,74.8505
119.1462,74.8172
119.3484,74.7516
119.5378,74.6551
119.6241,74.5923
119.7098,74.5301
119.7098,74.5301
119.7098,74.5301
119.8601,74.3798
119.8601,74.3798
119.8601,74.3798
119.9850,74.2078
119.9850,74.2078
119.9851,74.2078
119.9895,74.1991
120.0375,74.1483
120.1053,74.1315
120.1714,74.1540
120.2105,74.1991
120.2150,74.2078
120.3399,74.3798
120.4902,74.5301
120.6622,74.6550
120.6622,74.6550
120.6622,74.6551
120.8516,74.7516
121.0538,74.8172
121.2637,74.8505
121.2637,74.8505
121.4763,74.8505
121.4763,74.8505
121.6862,74.8172
121.8884,74.7516
122.0778,74.6551
122.1641,74.5923
122.2498,74.5301
122.2498,74.5301
122.2498,74.5301
122.4001,74.3798
122.4001,74.3798
122.4001,74.3798
122.5250,74.2078
122.5250,74.2078
122.5251,74.2078
122.6216,74.0184
122.6872,73.8162
122.7205,73.6063
122.7205,73.3937
122.6872,73.1838
122.6216,72.9816
122.5251,72.7922
122.5250,72.7922
122.5250,72.7922
122.4001,72.6202
122.2498,72.4699
122.0778,72.3450
121.8884,72.2484
121.8884,72.2484
121.8884,72.2484
121.6862,72.1828
121.6862,72.1828
121.6862,72.1828
121.5250,72.1572
121.4763,72.1495
121.2637,72.1495
121.2150,72.1572
121.0538,72.1828
120.8516,72.2484
120.6622,72.3450
120.4902,72.4699
120.3399,72.6202
120.2149,72.7922
120.2105,72.8009
120.1625,72.8517
120.0947,72.8685
120.0286,72.8460
119.9895,72.8009
119.9851,72.7922
119.8601,72.6202
119.7098,72.4699
119.5378,72.3450
119.3484,72.2484
119.3484,72.2484
119.3484,72.2484
119.1462,72.1828
119.1462,72.1828
119.1462,72.1828
118.9850,72.1572
118.9363,72.1495
118.7237,72.1495
118.6750,72.1572
118.5138,72.1828
118.3116,72.2484
118.1222,72.3450
117.9502,72.4699
117.7999,72.6202
117.6749,72.7922
117.6705,72.8009
117.6225,72.8517
117.5547,72.8685
117.4886,72.8460
117.4495,72.8009
117.4450,72.7922
117.3201,72.6202
117.1698,72.4699
116.9978,72.3450
116.8084,72.2484
116.8084,72.2484
116.8084,72.2484
116.6062,72.1828
116.6062,72.1828
116.6062,72.1828
116.4450,72.1572
116.3963,72.1495
116.1837,72.1495
116.1350,72.1572
115.9738,72.1828
115.7716,72.2484
115.5822,72.3450
115.4102,72.4699
115.2599,72.6202
115.1349,72.7922
115.1305,72.8009
115.0825,72.8517
115.0147,72.8685
114.9486,72.8460
114.9095,72.8009
114.9050,72.7922
114.7801,72.6202
114.6298,72.4699
114.4578,72.3450
114.2684,72.2484
114.2684,72.2484
114.2684,72.2484
114.0662,72.1828
114.0662,72.1828
114.0662,72.1828
113.9050,72.1572
113.8563,72.1495
113.6437,72.1495
113.5950,72.1572
113.4338,72.1828
113.2316,72.2484
113.0422,72.3450
112.8702,72.4699
112.7567,72.5834
112.6953,72.6169
112.6257,72.6119
112.5697,72.5701
112.5528,72.5391
112.5038,72.4077
112.5038,72.4077
112.4175,72.2925
112.4175,72.2925
112.3023,72.2062
112.3023,72.2062
112.1675,72.1559
112.1675,72.1559
112.1079,72.1495
112.1079,72.1495
112.1079,72.1495
112.1079,72.1495
110.3121,72.1495
110.3121,72.1495
110.2525,72.1559
110.1177,72.2062
110.1177,72.2062
110.0025,72.2925
110.0025,72.2925
109.9162,72.4077
109.9162,72.4077
109.8659,72.5425
109.8595,72.6021
109.8595,72.6021
98.0559,72.6021
98.0594,72.5862
98.0643,72.5692
98.1329,72.3854
98.1403,72.3693
98.1536,72.3450
98.2343,72.1971
98.2438,72.1822
98.3614,72.0251
98.3730,72.0118
98.5118,71.8730
98.5251,71.8614
98.6822,71.7438
98.6971,71.7343
98.8693,71.6403
98.8854,71.6329
99.0692,71.5643
99.0862,71.5594
99.2779,71.5176
99.2954,71.5151
99.4956,71.5008
99.5044,71.5005
99.5659,71.5005
186.9341,71.5005
186.9956,71.5005
Z" /> 
</g> 
</svg>
