<?xml version="1.0" standalone="no"?>
 <!DOCTYPE svg PUBLIC "-//W3C//DTD SVG 1.1//EN" 
 "http://www.w3.org/Graphics/SVG/1.1/DTD/svg11.dtd"> 
<svg
  xmlns:svg="http://www.w3.org/2000/svg"
  xmlns="http://www.w3.org/2000/svg"
  xmlns:xlink="http://www.w3.org/1999/xlink"
  version="1.1"
  width="297.0022mm" height="210.0072mm" viewBox="0.0000 0.0000 297.0022 210.0072">
<title>SVG Image created as logan-F_Mask.svg date 2025/08/08 20:49:15 </title>
  <desc>Image generated by PCBNEW </desc>
<g style="fill:#000000; fill-opacity:1.0000;stroke:#000000; stroke-opacity:1.0000;
stroke-linecap:round; stroke-linejoin:round;"
 transform="translate(0 0) scale(1 1)">
<path style="fill:#000000; fill-opacity:1.0000; stroke:none;fill-rule:evenodd;"
d="M 165.8100,105.3500
164.1100,105.3500
164.1100,103.6500
165.8100,103.6500
Z" /> 
</g>
<g style="fill:#000000; fill-opacity:1.0000; stroke:none;">
<circle cx="167.5000" cy="104.5000" r="0.8500" /> 
<circle cx="170.0400" cy="104.5000" r="0.8500" /> 
<circle cx="172.5800" cy="104.5000" r="0.8500" /> 
<circle cx="175.1200" cy="104.5000" r="0.8500" /> 
<circle cx="177.6600" cy="104.5000" r="0.8500" /> 
<path style="fill:#000000; fill-opacity:1.0000; stroke:none;fill-rule:evenodd;"
d="M 139.0900,83.2500
139.0900,81.6500
140.6900,81.6500
140.6900,83.2500
Z" /> 
<circle cx="139.8900" cy="84.9900" r="0.8000" /> 
<circle cx="139.8900" cy="87.5300" r="0.8000" /> 
<circle cx="139.8900" cy="90.0700" r="0.8000" /> 
<circle cx="139.8900" cy="92.6100" r="0.8000" /> 
<circle cx="139.8900" cy="95.1500" r="0.8000" /> 
<circle cx="139.8900" cy="97.6900" r="0.8000" /> 
<circle cx="139.8900" cy="100.2300" r="0.8000" /> 
<circle cx="139.8900" cy="102.7700" r="0.8000" /> 
<circle cx="139.8900" cy="105.3100" r="0.8000" /> 
<circle cx="139.8900" cy="107.8500" r="0.8000" /> 
<circle cx="139.8900" cy="110.3900" r="0.8000" /> 
<circle cx="139.8900" cy="112.9300" r="0.8000" /> 
<circle cx="139.8900" cy="115.4700" r="0.8000" /> 
<circle cx="139.8900" cy="118.0100" r="0.8000" /> 
<circle cx="155.1300" cy="118.0100" r="0.8000" /> 
<circle cx="155.1300" cy="115.4700" r="0.8000" /> 
<circle cx="155.1300" cy="112.9300" r="0.8000" /> 
<circle cx="155.1300" cy="110.3900" r="0.8000" /> 
<circle cx="155.1300" cy="107.8500" r="0.8000" /> 
<circle cx="155.1300" cy="105.3100" r="0.8000" /> 
<circle cx="155.1300" cy="102.7700" r="0.8000" /> 
<circle cx="155.1300" cy="100.2300" r="0.8000" /> 
<circle cx="155.1300" cy="97.6900" r="0.8000" /> 
<circle cx="155.1300" cy="95.1500" r="0.8000" /> 
<circle cx="155.1300" cy="92.6100" r="0.8000" /> 
<circle cx="155.1300" cy="90.0700" r="0.8000" /> 
<circle cx="155.1300" cy="87.5300" r="0.8000" /> 
<circle cx="155.1300" cy="84.9900" r="0.8000" /> 
<circle cx="155.1300" cy="82.4500" r="0.8000" /> 
<circle cx="184.5000" cy="121.0000" r="1.1000" /> 
<path style="fill:#000000; fill-opacity:1.0000; stroke:none;fill-rule:evenodd;"
d="M 112.0600,99.3500
110.3600,99.3500
110.3600,97.6500
112.0600,97.6500
Z" /> 
</g>
<g style="fill:#000000; fill-opacity:1.0000; stroke:none;">
<circle cx="113.7500" cy="98.5000" r="0.8500" /> 
<circle cx="116.2900" cy="98.5000" r="0.8500" /> 
<circle cx="118.8300" cy="98.5000" r="0.8500" /> 
<circle cx="121.3700" cy="98.5000" r="0.8500" /> 
<circle cx="123.9100" cy="98.5000" r="0.8500" /> 
<circle cx="126.4500" cy="98.5000" r="0.8500" /> 
<circle cx="128.9900" cy="98.5000" r="0.8500" /> 
<circle cx="131.5300" cy="98.5000" r="0.8500" /> 
<circle cx="184.5000" cy="76.0000" r="1.1000" /> 
<path style="fill:#000000; fill-opacity:1.0000; stroke:none;fill-rule:evenodd;"
d="M 126.5500,111.6500
126.5500,109.6500
131.1500,109.6500
131.1500,111.6500
Z" /> 
</g>
<g style="fill:none; 
stroke:#000000; stroke-width:2.0000; stroke-opacity:1; 
stroke-linecap:round; stroke-linejoin:round;">
<path d="M127.7500 116.9500
L129.9500 116.9500
" />
<path d="M133.6500 112.4500
L133.6500 114.6500
" />
<path style="fill:#000000; fill-opacity:1.0000; stroke:none;fill-rule:evenodd;"
d="M 166.1500,79.2700
166.1500,77.5700
167.8500,77.5700
167.8500,79.2700
Z" /> 
</g>
<g style="fill:#000000; fill-opacity:1.0000; stroke:none;">
<circle cx="167.0000" cy="80.9600" r="0.8500" /> 
<circle cx="167.0000" cy="83.5000" r="0.8500" /> 
<circle cx="167.0000" cy="86.0400" r="0.8500" /> 
<path style="fill:#000000; fill-opacity:1.0000; stroke:none;fill-rule:evenodd;"
d="M 112.0600,74.3500
110.3600,74.3500
110.3600,72.6500
112.0600,72.6500
Z" /> 
<circle cx="113.7500" cy="73.5000" r="0.8500" /> 
<circle cx="116.2900" cy="73.5000" r="0.8500" /> 
<circle cx="118.8300" cy="73.5000" r="0.8500" /> 
<circle cx="121.3700" cy="73.5000" r="0.8500" /> 
<circle cx="102.0000" cy="121.0000" r="1.1000" /> 
</g>
<g style="fill:#000000; fill-opacity:1.0000; stroke:none;">
<circle cx="102.5000" cy="75.5000" r="1.1000" /> 
</g> 
</svg>
