<?xml version="1.0" standalone="no"?>
 <!DOCTYPE svg PUBLIC "-//W3C//DTD SVG 1.1//EN" 
 "http://www.w3.org/Graphics/SVG/1.1/DTD/svg11.dtd"> 
<svg
  xmlns:svg="http://www.w3.org/2000/svg"
  xmlns="http://www.w3.org/2000/svg"
  xmlns:xlink="http://www.w3.org/1999/xlink"
  version="1.1"
  width="297.0022mm" height="210.0072mm" viewBox="0.0000 0.0000 297.0022 210.0072">
<title>SVG Image created as logan-B_Cu.svg date 2025/08/08 20:49:15 </title>
  <desc>Image generated by PCBNEW </desc>
<g style="fill:#000000; fill-opacity:1.0000;stroke:#000000; stroke-opacity:1.0000;
stroke-linecap:round; stroke-linejoin:round;"
 transform="translate(0 0) scale(1 1)">
<path style="fill:#000000; fill-opacity:1.0000; stroke:none;fill-rule:evenodd;"
d="M 165.8100,105.3500
164.1100,105.3500
164.1100,103.6500
165.8100,103.6500
Z" /> 
</g>
<g style="fill:#000000; fill-opacity:1.0000; stroke:none;">
<circle cx="167.5000" cy="104.5000" r="0.8500" /> 
<circle cx="170.0400" cy="104.5000" r="0.8500" /> 
<circle cx="172.5800" cy="104.5000" r="0.8500" /> 
<circle cx="175.1200" cy="104.5000" r="0.8500" /> 
<circle cx="177.6600" cy="104.5000" r="0.8500" /> 
<path style="fill:#000000; fill-opacity:1.0000; stroke:none;fill-rule:evenodd;"
d="M 139.0900,83.2500
139.0900,81.6500
140.6900,81.6500
140.6900,83.2500
Z" /> 
<circle cx="139.8900" cy="84.9900" r="0.8000" /> 
<circle cx="139.8900" cy="87.5300" r="0.8000" /> 
<circle cx="139.8900" cy="90.0700" r="0.8000" /> 
<circle cx="139.8900" cy="92.6100" r="0.8000" /> 
<circle cx="139.8900" cy="95.1500" r="0.8000" /> 
<circle cx="139.8900" cy="97.6900" r="0.8000" /> 
<circle cx="139.8900" cy="100.2300" r="0.8000" /> 
<circle cx="139.8900" cy="102.7700" r="0.8000" /> 
<circle cx="139.8900" cy="105.3100" r="0.8000" /> 
<circle cx="139.8900" cy="107.8500" r="0.8000" /> 
<circle cx="139.8900" cy="110.3900" r="0.8000" /> 
<circle cx="139.8900" cy="112.9300" r="0.8000" /> 
<circle cx="139.8900" cy="115.4700" r="0.8000" /> 
<circle cx="139.8900" cy="118.0100" r="0.8000" /> 
<circle cx="155.1300" cy="118.0100" r="0.8000" /> 
<circle cx="155.1300" cy="115.4700" r="0.8000" /> 
<circle cx="155.1300" cy="112.9300" r="0.8000" /> 
<circle cx="155.1300" cy="110.3900" r="0.8000" /> 
<circle cx="155.1300" cy="107.8500" r="0.8000" /> 
<circle cx="155.1300" cy="105.3100" r="0.8000" /> 
<circle cx="155.1300" cy="102.7700" r="0.8000" /> 
<circle cx="155.1300" cy="100.2300" r="0.8000" /> 
<circle cx="155.1300" cy="97.6900" r="0.8000" /> 
<circle cx="155.1300" cy="95.1500" r="0.8000" /> 
<circle cx="155.1300" cy="92.6100" r="0.8000" /> 
<circle cx="155.1300" cy="90.0700" r="0.8000" /> 
<circle cx="155.1300" cy="87.5300" r="0.8000" /> 
<circle cx="155.1300" cy="84.9900" r="0.8000" /> 
<circle cx="155.1300" cy="82.4500" r="0.8000" /> 
<path style="fill:#000000; fill-opacity:1.0000; stroke:none;fill-rule:evenodd;"
d="M 112.0600,99.3500
110.3600,99.3500
110.3600,97.6500
112.0600,97.6500
Z" /> 
<circle cx="113.7500" cy="98.5000" r="0.8500" /> 
<circle cx="116.2900" cy="98.5000" r="0.8500" /> 
<circle cx="118.8300" cy="98.5000" r="0.8500" /> 
<circle cx="121.3700" cy="98.5000" r="0.8500" /> 
<circle cx="123.9100" cy="98.5000" r="0.8500" /> 
<circle cx="126.4500" cy="98.5000" r="0.8500" /> 
<circle cx="128.9900" cy="98.5000" r="0.8500" /> 
<circle cx="131.5300" cy="98.5000" r="0.8500" /> 
<path style="fill:#000000; fill-opacity:1.0000; stroke:none;fill-rule:evenodd;"
d="M 126.5500,111.6500
126.5500,109.6500
131.1500,109.6500
131.1500,111.6500
Z" /> 
</g>
<g style="fill:none; 
stroke:#000000; stroke-width:2.0000; stroke-opacity:1; 
stroke-linecap:round; stroke-linejoin:round;">
<path d="M127.7500 116.9500
L129.9500 116.9500
" />
<path d="M133.6500 112.4500
L133.6500 114.6500
" />
<path style="fill:#000000; fill-opacity:1.0000; stroke:none;fill-rule:evenodd;"
d="M 166.1500,79.2700
166.1500,77.5700
167.8500,77.5700
167.8500,79.2700
Z" /> 
</g>
<g style="fill:#000000; fill-opacity:1.0000; stroke:none;">
<circle cx="167.0000" cy="80.9600" r="0.8500" /> 
<circle cx="167.0000" cy="83.5000" r="0.8500" /> 
<circle cx="167.0000" cy="86.0400" r="0.8500" /> 
<path style="fill:#000000; fill-opacity:1.0000; stroke:none;fill-rule:evenodd;"
d="M 112.0600,74.3500
110.3600,74.3500
110.3600,72.6500
112.0600,72.6500
Z" /> 
<circle cx="113.7500" cy="73.5000" r="0.8500" /> 
<circle cx="116.2900" cy="73.5000" r="0.8500" /> 
<circle cx="118.8300" cy="73.5000" r="0.8500" /> 
<circle cx="121.3700" cy="73.5000" r="0.8500" /> 
<circle cx="158.0000" cy="103.5000" r="0.3000" /> 
</g>
<g style="fill:#000000; fill-opacity:1.0000; stroke:none;">
<circle cx="134.0300" cy="96.0000" r="0.3000" /> 
</g>
<g style="fill:#000000; fill-opacity:1.0000; stroke:none;">
<circle cx="136.8025" cy="109.1975" r="0.3000" /> 
</g>
<g style="fill:#000000; fill-opacity:1.0000; stroke:none;">
<circle cx="123.9100" cy="102.5000" r="0.3000" /> 
</g>
<g style="fill:none; 
stroke:#000000; stroke-width:0.2000; stroke-opacity:1; 
stroke-linecap:round; stroke-linejoin:round;">
<path d="M159.0000 104.5000
L158.0000 103.5000
" />
<path d="M164.9600 104.5000
L159.0000 104.5000
" />
</g>
<g style="fill:none; 
stroke:#000000; stroke-width:0.5000; stroke-opacity:1; 
stroke-linecap:round; stroke-linejoin:round;">
<path d="M140.4082 96.4010
L141.1410 95.6682
" />
<path d="M141.1410 95.6682
L141.1410 94.6318
" />
<path d="M153.0500 82.4500
L155.1300 82.4500
" />
<path d="M139.3718 96.4010
L140.4082 96.4010
" />
</g>
<g style="fill:none; 
stroke:#000000; stroke-width:0.2000; stroke-opacity:1; 
stroke-linecap:round; stroke-linejoin:round;">
<path d="M128.8500 110.1500
L128.8500 110.6500
" />
</g>
<g style="fill:none; 
stroke:#000000; stroke-width:0.5000; stroke-opacity:1; 
stroke-linecap:round; stroke-linejoin:round;">
<path d="M128.8500 110.6500
L128.8500 106.9228
" />
<path d="M141.1410 94.6318
L141.0046 94.4954
" />
<path d="M128.8500 106.9228
L139.3718 96.4010
" />
<path d="M141.0046 94.4954
L153.0500 82.4500
" />
</g>
<g style="fill:none; 
stroke:#000000; stroke-width:0.2000; stroke-opacity:1; 
stroke-linecap:round; stroke-linejoin:round;">
<path d="M137.0000 95.5000
L139.8900 92.6100
" />
<path d="M134.5300 95.5000
L137.0000 95.5000
" />
<path d="M134.0300 96.0000
L134.5300 95.5000
" />
<path d="M128.0711 119.1110
L154.0290 119.1110
" />
<path d="M121.3700 112.4099
L128.0711 119.1110
" />
<path d="M121.3700 98.5000
L121.3700 112.4099
" />
<path d="M154.0290 119.1110
L155.1300 118.0100
" />
<path d="M129.7980 115.5000
L132.6601 115.5000
" />
<path d="M134.5000 116.0000
L139.3600 116.0000
" />
<path d="M125.6000 111.3020
L129.7980 115.5000
" />
<path d="M126.4500 98.5000
L125.6000 99.3500
" />
<path d="M125.6000 99.3500
L125.6000 111.3020
" />
<path d="M133.1111 115.9510
L134.4510 115.9510
" />
<path d="M139.3600 116.0000
L139.8900 115.4700
" />
<path d="M134.4510 115.9510
L134.5000 116.0000
" />
<path d="M132.6601 115.5000
L133.1111 115.9510
" />
<path d="M142.7300 100.2300
L139.8900 100.2300
" />
<path d="M175.1200 104.5000
L172.2890 101.6690
" />
<path d="M144.1690 101.6690
L142.7300 100.2300
" />
<path d="M172.2890 101.6690
L144.1690 101.6690
" />
<path d="M140.3460 111.8290
L141.0000 112.4829
" />
<path d="M136.8025 109.1975
L139.4339 111.8290
" />
<path d="M141.0000 116.9000
L139.8900 118.0100
" />
<path d="M141.0000 112.4829
L141.0000 116.9000
" />
<path d="M139.4339 111.8290
L140.3460 111.8290
" />
<path d="M123.9100 102.5000
L123.9100 98.5000
" />
</g> 
</svg>
