<?xml version="1.0" standalone="no"?>
 <!DOCTYPE svg PUBLIC "-//W3C//DTD SVG 1.1//EN" 
 "http://www.w3.org/Graphics/SVG/1.1/DTD/svg11.dtd"> 
<svg
  xmlns:svg="http://www.w3.org/2000/svg"
  xmlns="http://www.w3.org/2000/svg"
  xmlns:xlink="http://www.w3.org/1999/xlink"
  version="1.1"
  width="297.0022mm" height="210.0072mm" viewBox="0.0000 0.0000 297.0022 210.0072">
<title>SVG Image created as logan-F_Silkscreen.svg date 2025/08/08 20:49:15 </title>
  <desc>Image generated by PCBNEW </desc>
<g style="fill:#000000; fill-opacity:1.0000;stroke:#000000; stroke-opacity:1.0000;
stroke-linecap:round; stroke-linejoin:round;"
 transform="translate(0 0) scale(1 1)">
<path style="fill:none; 
stroke:#000000; stroke-width:0.1000; stroke-opacity:1; 
stroke-linecap:round; stroke-linejoin:round;fill:none"
d="M 162.5000,102.5000
180.5000,102.5000
180.5000,123.5000
162.5000,123.5000
Z" /> 
<path style="fill:none; 
stroke:#000000; stroke-width:0.1000; stroke-opacity:1; 
stroke-linecap:round; stroke-linejoin:round;fill:none"
d="M 108.2500,72.0000
133.7500,72.0000
133.7500,101.0000
108.2500,101.0000
Z" /> 
</g>
<g style="fill:none; 
stroke:#000000; stroke-width:0.1000; stroke-opacity:1; 
stroke-linecap:round; stroke-linejoin:round;">
<text x="145.5000" y="74.0000"
textLength="16.1952" font-size="1.3333" lengthAdjust="spacingAndGlyphs"
text-anchor="start" opacity="0" stroke-opacity="0">By Logan Caramanna</text>
<g class="stroked-text"><desc>By Logan Caramanna</desc>
<path d="M146.1372 73.3486
L146.2801 73.3962
" />
<path d="M146.2801 73.3962
L146.3277 73.4438
" />
<path d="M146.3277 73.4438
L146.3753 73.5391
" />
<path d="M146.3753 73.5391
L146.3753 73.6819
" />
<path d="M146.3753 73.6819
L146.3277 73.7772
" />
<path d="M146.3277 73.7772
L146.2801 73.8248
" />
<path d="M146.2801 73.8248
L146.1848 73.8724
" />
<path d="M146.1848 73.8724
L145.8039 73.8724
" />
<path d="M145.8039 73.8724
L145.8039 72.8724
" />
<path d="M145.8039 72.8724
L146.1372 72.8724
" />
<path d="M146.1372 72.8724
L146.2325 72.9200
" />
<path d="M146.2325 72.9200
L146.2801 72.9677
" />
<path d="M146.2801 72.9677
L146.3277 73.0629
" />
<path d="M146.3277 73.0629
L146.3277 73.1581
" />
<path d="M146.3277 73.1581
L146.2801 73.2534
" />
<path d="M146.2801 73.2534
L146.2325 73.3010
" />
<path d="M146.2325 73.3010
L146.1372 73.3486
" />
<path d="M146.1372 73.3486
L145.8039 73.3486
" />
<path d="M146.7086 73.2058
L146.9467 73.8724
" />
<path d="M147.1848 73.2058
L146.9467 73.8724
" />
<path d="M146.9467 73.8724
L146.8515 74.1105
" />
<path d="M146.8515 74.1105
L146.8039 74.1581
" />
<path d="M146.8039 74.1581
L146.7086 74.2058
" />
<path d="M148.8039 73.8724
L148.3277 73.8724
" />
<path d="M148.3277 73.8724
L148.3277 72.8724
" />
<path d="M149.2801 73.8724
L149.1848 73.8248
" />
<path d="M149.1848 73.8248
L149.1372 73.7772
" />
<path d="M149.1372 73.7772
L149.0896 73.6819
" />
<path d="M149.0896 73.6819
L149.0896 73.3962
" />
<path d="M149.0896 73.3962
L149.1372 73.3010
" />
<path d="M149.1372 73.3010
L149.1848 73.2534
" />
<path d="M149.1848 73.2534
L149.2801 73.2058
" />
<path d="M149.2801 73.2058
L149.4229 73.2058
" />
<path d="M149.4229 73.2058
L149.5182 73.2534
" />
<path d="M149.5182 73.2534
L149.5658 73.3010
" />
<path d="M149.5658 73.3010
L149.6134 73.3962
" />
<path d="M149.6134 73.3962
L149.6134 73.6819
" />
<path d="M149.6134 73.6819
L149.5658 73.7772
" />
<path d="M149.5658 73.7772
L149.5182 73.8248
" />
<path d="M149.5182 73.8248
L149.4229 73.8724
" />
<path d="M149.4229 73.8724
L149.2801 73.8724
" />
<path d="M150.4706 73.2058
L150.4706 74.0153
" />
<path d="M150.4706 74.0153
L150.4229 74.1105
" />
<path d="M150.4229 74.1105
L150.3753 74.1581
" />
<path d="M150.3753 74.1581
L150.2801 74.2058
" />
<path d="M150.2801 74.2058
L150.1372 74.2058
" />
<path d="M150.1372 74.2058
L150.0420 74.1581
" />
<path d="M150.4706 73.8248
L150.3753 73.8724
" />
<path d="M150.3753 73.8724
L150.1848 73.8724
" />
<path d="M150.1848 73.8724
L150.0896 73.8248
" />
<path d="M150.0896 73.8248
L150.0420 73.7772
" />
<path d="M150.0420 73.7772
L149.9944 73.6819
" />
<path d="M149.9944 73.6819
L149.9944 73.3962
" />
<path d="M149.9944 73.3962
L150.0420 73.3010
" />
<path d="M150.0420 73.3010
L150.0896 73.2534
" />
<path d="M150.0896 73.2534
L150.1848 73.2058
" />
<path d="M150.1848 73.2058
L150.3753 73.2058
" />
<path d="M150.3753 73.2058
L150.4706 73.2534
" />
<path d="M151.3753 73.8724
L151.3753 73.3486
" />
<path d="M151.3753 73.3486
L151.3277 73.2534
" />
<path d="M151.3277 73.2534
L151.2325 73.2058
" />
<path d="M151.2325 73.2058
L151.0420 73.2058
" />
<path d="M151.0420 73.2058
L150.9467 73.2534
" />
<path d="M151.3753 73.8248
L151.2801 73.8724
" />
<path d="M151.2801 73.8724
L151.0420 73.8724
" />
<path d="M151.0420 73.8724
L150.9467 73.8248
" />
<path d="M150.9467 73.8248
L150.8991 73.7296
" />
<path d="M150.8991 73.7296
L150.8991 73.6343
" />
<path d="M150.8991 73.6343
L150.9467 73.5391
" />
<path d="M150.9467 73.5391
L151.0420 73.4915
" />
<path d="M151.0420 73.4915
L151.2801 73.4915
" />
<path d="M151.2801 73.4915
L151.3753 73.4438
" />
<path d="M151.8515 73.2058
L151.8515 73.8724
" />
<path d="M151.8515 73.3010
L151.8991 73.2534
" />
<path d="M151.8991 73.2534
L151.9944 73.2058
" />
<path d="M151.9944 73.2058
L152.1372 73.2058
" />
<path d="M152.1372 73.2058
L152.2325 73.2534
" />
<path d="M152.2325 73.2534
L152.2801 73.3486
" />
<path d="M152.2801 73.3486
L152.2801 73.8724
" />
<path d="M154.0896 73.7772
L154.0420 73.8248
" />
<path d="M154.0420 73.8248
L153.8991 73.8724
" />
<path d="M153.8991 73.8724
L153.8039 73.8724
" />
<path d="M153.8039 73.8724
L153.6610 73.8248
" />
<path d="M153.6610 73.8248
L153.5658 73.7296
" />
<path d="M153.5658 73.7296
L153.5182 73.6343
" />
<path d="M153.5182 73.6343
L153.4706 73.4438
" />
<path d="M153.4706 73.4438
L153.4706 73.3010
" />
<path d="M153.4706 73.3010
L153.5182 73.1105
" />
<path d="M153.5182 73.1105
L153.5658 73.0153
" />
<path d="M153.5658 73.0153
L153.6610 72.9200
" />
<path d="M153.6610 72.9200
L153.8039 72.8724
" />
<path d="M153.8039 72.8724
L153.8991 72.8724
" />
<path d="M153.8991 72.8724
L154.0420 72.9200
" />
<path d="M154.0420 72.9200
L154.0896 72.9677
" />
<path d="M154.9467 73.8724
L154.9467 73.3486
" />
<path d="M154.9467 73.3486
L154.8991 73.2534
" />
<path d="M154.8991 73.2534
L154.8039 73.2058
" />
<path d="M154.8039 73.2058
L154.6134 73.2058
" />
<path d="M154.6134 73.2058
L154.5182 73.2534
" />
<path d="M154.9467 73.8248
L154.8515 73.8724
" />
<path d="M154.8515 73.8724
L154.6134 73.8724
" />
<path d="M154.6134 73.8724
L154.5182 73.8248
" />
<path d="M154.5182 73.8248
L154.4706 73.7296
" />
<path d="M154.4706 73.7296
L154.4706 73.6343
" />
<path d="M154.4706 73.6343
L154.5182 73.5391
" />
<path d="M154.5182 73.5391
L154.6134 73.4915
" />
<path d="M154.6134 73.4915
L154.8515 73.4915
" />
<path d="M154.8515 73.4915
L154.9467 73.4438
" />
<path d="M155.4229 73.8724
L155.4229 73.2058
" />
<path d="M155.4229 73.3962
L155.4706 73.3010
" />
<path d="M155.4706 73.3010
L155.5182 73.2534
" />
<path d="M155.5182 73.2534
L155.6134 73.2058
" />
<path d="M155.6134 73.2058
L155.7086 73.2058
" />
<path d="M156.4706 73.8724
L156.4706 73.3486
" />
<path d="M156.4706 73.3486
L156.4229 73.2534
" />
<path d="M156.4229 73.2534
L156.3277 73.2058
" />
<path d="M156.3277 73.2058
L156.1372 73.2058
" />
<path d="M156.1372 73.2058
L156.0420 73.2534
" />
<path d="M156.4706 73.8248
L156.3753 73.8724
" />
<path d="M156.3753 73.8724
L156.1372 73.8724
" />
<path d="M156.1372 73.8724
L156.0420 73.8248
" />
<path d="M156.0420 73.8248
L155.9944 73.7296
" />
<path d="M155.9944 73.7296
L155.9944 73.6343
" />
<path d="M155.9944 73.6343
L156.0420 73.5391
" />
<path d="M156.0420 73.5391
L156.1372 73.4915
" />
<path d="M156.1372 73.4915
L156.3753 73.4915
" />
<path d="M156.3753 73.4915
L156.4706 73.4438
" />
<path d="M156.9467 73.8724
L156.9467 73.2058
" />
<path d="M156.9467 73.3010
L156.9944 73.2534
" />
<path d="M156.9944 73.2534
L157.0896 73.2058
" />
<path d="M157.0896 73.2058
L157.2325 73.2058
" />
<path d="M157.2325 73.2058
L157.3277 73.2534
" />
<path d="M157.3277 73.2534
L157.3753 73.3486
" />
<path d="M157.3753 73.3486
L157.3753 73.8724
" />
<path d="M157.3753 73.3486
L157.4229 73.2534
" />
<path d="M157.4229 73.2534
L157.5182 73.2058
" />
<path d="M157.5182 73.2058
L157.6610 73.2058
" />
<path d="M157.6610 73.2058
L157.7563 73.2534
" />
<path d="M157.7563 73.2534
L157.8039 73.3486
" />
<path d="M157.8039 73.3486
L157.8039 73.8724
" />
<path d="M158.7086 73.8724
L158.7086 73.3486
" />
<path d="M158.7086 73.3486
L158.6610 73.2534
" />
<path d="M158.6610 73.2534
L158.5658 73.2058
" />
<path d="M158.5658 73.2058
L158.3753 73.2058
" />
<path d="M158.3753 73.2058
L158.2801 73.2534
" />
<path d="M158.7086 73.8248
L158.6134 73.8724
" />
<path d="M158.6134 73.8724
L158.3753 73.8724
" />
<path d="M158.3753 73.8724
L158.2801 73.8248
" />
<path d="M158.2801 73.8248
L158.2325 73.7296
" />
<path d="M158.2325 73.7296
L158.2325 73.6343
" />
<path d="M158.2325 73.6343
L158.2801 73.5391
" />
<path d="M158.2801 73.5391
L158.3753 73.4915
" />
<path d="M158.3753 73.4915
L158.6134 73.4915
" />
<path d="M158.6134 73.4915
L158.7086 73.4438
" />
<path d="M159.1848 73.2058
L159.1848 73.8724
" />
<path d="M159.1848 73.3010
L159.2325 73.2534
" />
<path d="M159.2325 73.2534
L159.3277 73.2058
" />
<path d="M159.3277 73.2058
L159.4706 73.2058
" />
<path d="M159.4706 73.2058
L159.5658 73.2534
" />
<path d="M159.5658 73.2534
L159.6134 73.3486
" />
<path d="M159.6134 73.3486
L159.6134 73.8724
" />
<path d="M160.0896 73.2058
L160.0896 73.8724
" />
<path d="M160.0896 73.3010
L160.1372 73.2534
" />
<path d="M160.1372 73.2534
L160.2325 73.2058
" />
<path d="M160.2325 73.2058
L160.3753 73.2058
" />
<path d="M160.3753 73.2058
L160.4706 73.2534
" />
<path d="M160.4706 73.2534
L160.5182 73.3486
" />
<path d="M160.5182 73.3486
L160.5182 73.8724
" />
<path d="M161.4229 73.8724
L161.4229 73.3486
" />
<path d="M161.4229 73.3486
L161.3753 73.2534
" />
<path d="M161.3753 73.2534
L161.2801 73.2058
" />
<path d="M161.2801 73.2058
L161.0896 73.2058
" />
<path d="M161.0896 73.2058
L160.9944 73.2534
" />
<path d="M161.4229 73.8248
L161.3277 73.8724
" />
<path d="M161.3277 73.8724
L161.0896 73.8724
" />
<path d="M161.0896 73.8724
L160.9944 73.8248
" />
<path d="M160.9944 73.8248
L160.9467 73.7296
" />
<path d="M160.9467 73.7296
L160.9467 73.6343
" />
<path d="M160.9467 73.6343
L160.9944 73.5391
" />
<path d="M160.9944 73.5391
L161.0896 73.4915
" />
<path d="M161.0896 73.4915
L161.3277 73.4915
" />
<path d="M161.3277 73.4915
L161.4229 73.4438
" />
</g></g>
<g style="fill:none; 
stroke:#000000; stroke-width:0.1500; stroke-opacity:1; 
stroke-linecap:round; stroke-linejoin:round;">
<g transform="rotate(-90.000000 162.6300 104.5000)">
<text x="162.6300" y="105.0000"
textLength="1.9643" font-size="1.3333" lengthAdjust="spacingAndGlyphs"
text-anchor="middle" opacity="0" stroke-opacity="0">J2</text>
</g>
<g class="stroked-text"><desc>J2</desc>
<path d="M162.0848 104.8333
L162.7991 104.8333
" />
<path d="M162.7991 104.8333
L162.9420 104.8810
" />
<path d="M162.9420 104.8810
L163.0372 104.9762
" />
<path d="M163.0372 104.9762
L163.0848 105.1190
" />
<path d="M163.0848 105.1190
L163.0848 105.2143
" />
<path d="M162.1801 104.4048
L162.1324 104.3571
" />
<path d="M162.1324 104.3571
L162.0848 104.2619
" />
<path d="M162.0848 104.2619
L162.0848 104.0238
" />
<path d="M162.0848 104.0238
L162.1324 103.9286
" />
<path d="M162.1324 103.9286
L162.1801 103.8810
" />
<path d="M162.1801 103.8810
L162.2753 103.8333
" />
<path d="M162.2753 103.8333
L162.3705 103.8333
" />
<path d="M162.3705 103.8333
L162.5134 103.8810
" />
<path d="M162.5134 103.8810
L163.0848 104.4524
" />
<path d="M163.0848 104.4524
L163.0848 103.8333
" />
</g><text x="147.5100" y="77.8700"
textLength="2.0595" font-size="1.3333" lengthAdjust="spacingAndGlyphs"
text-anchor="middle" opacity="0" stroke-opacity="0">A1</text>
<g class="stroked-text"><desc>A1</desc>
<path d="M146.7957 77.5391
L147.2719 77.5391
" />
<path d="M146.7005 77.8248
L147.0338 76.8248
" />
<path d="M147.0338 76.8248
L147.3671 77.8248
" />
<path d="M148.2243 77.8248
L147.6529 77.8248
" />
<path d="M147.9386 77.8248
L147.9386 76.8248
" />
<path d="M147.9386 76.8248
L147.8433 76.9677
" />
<path d="M147.8433 76.9677
L147.7481 77.0629
" />
<path d="M147.7481 77.0629
L147.6529 77.1105
" />
</g><text x="147.5100" y="118.5100"
textLength="3.2500" font-size="1.3333" lengthAdjust="spacingAndGlyphs"
text-anchor="middle" opacity="0" stroke-opacity="0">USB</text>
<g class="stroked-text"><desc>USB</desc>
<path d="M146.2481 117.4648
L146.2481 118.2743
" />
<path d="M146.2481 118.2743
L146.2957 118.3696
" />
<path d="M146.2957 118.3696
L146.3433 118.4172
" />
<path d="M146.3433 118.4172
L146.4386 118.4648
" />
<path d="M146.4386 118.4648
L146.6290 118.4648
" />
<path d="M146.6290 118.4648
L146.7243 118.4172
" />
<path d="M146.7243 118.4172
L146.7719 118.3696
" />
<path d="M146.7719 118.3696
L146.8195 118.2743
" />
<path d="M146.8195 118.2743
L146.8195 117.4648
" />
<path d="M147.2481 118.4172
L147.3910 118.4648
" />
<path d="M147.3910 118.4648
L147.6290 118.4648
" />
<path d="M147.6290 118.4648
L147.7243 118.4172
" />
<path d="M147.7243 118.4172
L147.7719 118.3696
" />
<path d="M147.7719 118.3696
L147.8195 118.2743
" />
<path d="M147.8195 118.2743
L147.8195 118.1791
" />
<path d="M147.8195 118.1791
L147.7719 118.0839
" />
<path d="M147.7719 118.0839
L147.7243 118.0362
" />
<path d="M147.7243 118.0362
L147.6290 117.9886
" />
<path d="M147.6290 117.9886
L147.4386 117.9410
" />
<path d="M147.4386 117.9410
L147.3433 117.8934
" />
<path d="M147.3433 117.8934
L147.2957 117.8458
" />
<path d="M147.2957 117.8458
L147.2481 117.7505
" />
<path d="M147.2481 117.7505
L147.2481 117.6553
" />
<path d="M147.2481 117.6553
L147.2957 117.5601
" />
<path d="M147.2957 117.5601
L147.3433 117.5124
" />
<path d="M147.3433 117.5124
L147.4386 117.4648
" />
<path d="M147.4386 117.4648
L147.6767 117.4648
" />
<path d="M147.6767 117.4648
L147.8195 117.5124
" />
<path d="M148.5814 117.9410
L148.7243 117.9886
" />
<path d="M148.7243 117.9886
L148.7719 118.0362
" />
<path d="M148.7719 118.0362
L148.8195 118.1315
" />
<path d="M148.8195 118.1315
L148.8195 118.2743
" />
<path d="M148.8195 118.2743
L148.7719 118.3696
" />
<path d="M148.7719 118.3696
L148.7243 118.4172
" />
<path d="M148.7243 118.4172
L148.6290 118.4648
" />
<path d="M148.6290 118.4648
L148.2481 118.4648
" />
<path d="M148.2481 118.4648
L148.2481 117.4648
" />
<path d="M148.2481 117.4648
L148.5814 117.4648
" />
<path d="M148.5814 117.4648
L148.6767 117.5124
" />
<path d="M148.6767 117.5124
L148.7243 117.5601
" />
<path d="M148.7243 117.5601
L148.7719 117.6553
" />
<path d="M148.7719 117.6553
L148.7719 117.7505
" />
<path d="M148.7719 117.7505
L148.7243 117.8458
" />
<path d="M148.7243 117.8458
L148.6767 117.8934
" />
<path d="M148.6767 117.8934
L148.5814 117.9410
" />
<path d="M148.5814 117.9410
L148.2481 117.9410
" />
</g><text x="184.5000" y="118.3000"
textLength="2.2500" font-size="1.3333" lengthAdjust="spacingAndGlyphs"
text-anchor="middle" opacity="0" stroke-opacity="0">H4</text>
<g class="stroked-text"><desc>H4</desc>
<path d="M183.7381 118.2548
L183.7381 117.2548
" />
<path d="M183.7381 117.7310
L184.3095 117.7310
" />
<path d="M184.3095 118.2548
L184.3095 117.2548
" />
<path d="M185.2143 117.5882
L185.2143 118.2548
" />
<path d="M184.9762 117.2072
L184.7381 117.9215
" />
<path d="M184.7381 117.9215
L185.3571 117.9215
" />
</g><g transform="rotate(-90.000000 108.8800 98.5000)">
<text x="108.8800" y="99.0000"
textLength="1.9643" font-size="1.3333" lengthAdjust="spacingAndGlyphs"
text-anchor="middle" opacity="0" stroke-opacity="0">J4</text>
</g>
<g class="stroked-text"><desc>J4</desc>
<path d="M108.3348 98.8333
L109.0491 98.8333
" />
<path d="M109.0491 98.8333
L109.1920 98.8810
" />
<path d="M109.1920 98.8810
L109.2872 98.9762
" />
<path d="M109.2872 98.9762
L109.3348 99.1190
" />
<path d="M109.3348 99.1190
L109.3348 99.2143
" />
<path d="M108.6682 97.9286
L109.3348 97.9286
" />
<path d="M108.2872 98.1667
L109.0015 98.4048
" />
<path d="M109.0015 98.4048
L109.0015 97.7857
" />
</g><text x="184.5000" y="80.0000"
textLength="2.2500" font-size="1.3333" lengthAdjust="spacingAndGlyphs"
text-anchor="middle" opacity="0" stroke-opacity="0">H2</text>
<g class="stroked-text"><desc>H2</desc>
<path d="M183.7381 79.9548
L183.7381 78.9548
" />
<path d="M183.7381 79.4310
L184.3095 79.4310
" />
<path d="M184.3095 79.9548
L184.3095 78.9548
" />
<path d="M184.7381 79.0501
L184.7857 79.0024
" />
<path d="M184.7857 79.0024
L184.8810 78.9548
" />
<path d="M184.8810 78.9548
L185.1190 78.9548
" />
<path d="M185.1190 78.9548
L185.2143 79.0024
" />
<path d="M185.2143 79.0024
L185.2619 79.0501
" />
<path d="M185.2619 79.0501
L185.3095 79.1453
" />
<path d="M185.3095 79.1453
L185.3095 79.2405
" />
<path d="M185.3095 79.2405
L185.2619 79.3834
" />
<path d="M185.2619 79.3834
L184.6905 79.9548
" />
<path d="M184.6905 79.9548
L185.3095 79.9548
" />
</g><text x="128.8500" y="108.6500"
textLength="1.9643" font-size="1.3333" lengthAdjust="spacingAndGlyphs"
text-anchor="middle" opacity="0" stroke-opacity="0">J1</text>
<g class="stroked-text"><desc>J1</desc>
<path d="M128.5167 107.6048
L128.5167 108.3191
" />
<path d="M128.5167 108.3191
L128.4690 108.4620
" />
<path d="M128.4690 108.4620
L128.3738 108.5572
" />
<path d="M128.3738 108.5572
L128.2310 108.6048
" />
<path d="M128.2310 108.6048
L128.1357 108.6048
" />
<path d="M129.5167 108.6048
L128.9452 108.6048
" />
<path d="M129.2310 108.6048
L129.2310 107.6048
" />
<path d="M129.2310 107.6048
L129.1357 107.7477
" />
<path d="M129.1357 107.7477
L129.0405 107.8429
" />
<path d="M129.0405 107.8429
L128.9452 107.8905
" />
</g><text x="167.0000" y="76.5900"
textLength="1.9643" font-size="1.3333" lengthAdjust="spacingAndGlyphs"
text-anchor="middle" opacity="0" stroke-opacity="0">J3</text>
<g class="stroked-text"><desc>J3</desc>
<path d="M166.6667 75.5448
L166.6667 76.2591
" />
<path d="M166.6667 76.2591
L166.6190 76.4020
" />
<path d="M166.6190 76.4020
L166.5238 76.4972
" />
<path d="M166.5238 76.4972
L166.3810 76.5448
" />
<path d="M166.3810 76.5448
L166.2857 76.5448
" />
<path d="M167.0476 75.5448
L167.6667 75.5448
" />
<path d="M167.6667 75.5448
L167.3333 75.9258
" />
<path d="M167.3333 75.9258
L167.4762 75.9258
" />
<path d="M167.4762 75.9258
L167.5714 75.9734
" />
<path d="M167.5714 75.9734
L167.6190 76.0210
" />
<path d="M167.6190 76.0210
L167.6667 76.1162
" />
<path d="M167.6667 76.1162
L167.6667 76.3543
" />
<path d="M167.6667 76.3543
L167.6190 76.4496
" />
<path d="M167.6190 76.4496
L167.5714 76.4972
" />
<path d="M167.5714 76.4972
L167.4762 76.5448
" />
<path d="M167.4762 76.5448
L167.1905 76.5448
" />
<path d="M167.1905 76.5448
L167.0952 76.4972
" />
<path d="M167.0952 76.4972
L167.0476 76.4496
" />
</g><g transform="rotate(-90.000000 108.8800 73.5000)">
<text x="108.8800" y="74.0000"
textLength="1.9643" font-size="1.3333" lengthAdjust="spacingAndGlyphs"
text-anchor="middle" opacity="0" stroke-opacity="0">J5</text>
</g>
<g class="stroked-text"><desc>J5</desc>
<path d="M108.3348 73.8333
L109.0491 73.8333
" />
<path d="M109.0491 73.8333
L109.1920 73.8810
" />
<path d="M109.1920 73.8810
L109.2872 73.9762
" />
<path d="M109.2872 73.9762
L109.3348 74.1190
" />
<path d="M109.3348 74.1190
L109.3348 74.2143
" />
<path d="M108.3348 72.8810
L108.3348 73.3571
" />
<path d="M108.3348 73.3571
L108.8110 73.4048
" />
<path d="M108.8110 73.4048
L108.7634 73.3571
" />
<path d="M108.7634 73.3571
L108.7158 73.2619
" />
<path d="M108.7158 73.2619
L108.7158 73.0238
" />
<path d="M108.7158 73.0238
L108.7634 72.9286
" />
<path d="M108.7634 72.9286
L108.8110 72.8810
" />
<path d="M108.8110 72.8810
L108.9062 72.8333
" />
<path d="M108.9062 72.8333
L109.1443 72.8333
" />
<path d="M109.1443 72.8333
L109.2396 72.8810
" />
<path d="M109.2396 72.8810
L109.2872 72.9286
" />
<path d="M109.2872 72.9286
L109.3348 73.0238
" />
<path d="M109.3348 73.0238
L109.3348 73.2619
" />
<path d="M109.3348 73.2619
L109.2872 73.3571
" />
<path d="M109.2872 73.3571
L109.2396 73.4048
" />
</g><text x="102.0000" y="118.3000"
textLength="2.2500" font-size="1.3333" lengthAdjust="spacingAndGlyphs"
text-anchor="middle" opacity="0" stroke-opacity="0">H3</text>
<g class="stroked-text"><desc>H3</desc>
<path d="M101.2381 118.2548
L101.2381 117.2548
" />
<path d="M101.2381 117.7310
L101.8095 117.7310
" />
<path d="M101.8095 118.2548
L101.8095 117.2548
" />
<path d="M102.1905 117.2548
L102.8095 117.2548
" />
<path d="M102.8095 117.2548
L102.4762 117.6358
" />
<path d="M102.4762 117.6358
L102.6190 117.6358
" />
<path d="M102.6190 117.6358
L102.7143 117.6834
" />
<path d="M102.7143 117.6834
L102.7619 117.7310
" />
<path d="M102.7619 117.7310
L102.8095 117.8262
" />
<path d="M102.8095 117.8262
L102.8095 118.0643
" />
<path d="M102.8095 118.0643
L102.7619 118.1596
" />
<path d="M102.7619 118.1596
L102.7143 118.2072
" />
<path d="M102.7143 118.2072
L102.6190 118.2548
" />
<path d="M102.6190 118.2548
L102.3333 118.2548
" />
<path d="M102.3333 118.2548
L102.2381 118.2072
" />
<path d="M102.2381 118.2072
L102.1905 118.1596
" />
</g><text x="102.5000" y="79.5000"
textLength="2.2500" font-size="1.3333" lengthAdjust="spacingAndGlyphs"
text-anchor="middle" opacity="0" stroke-opacity="0">H1</text>
<g class="stroked-text"><desc>H1</desc>
<path d="M101.7381 79.4548
L101.7381 78.4548
" />
<path d="M101.7381 78.9310
L102.3095 78.9310
" />
<path d="M102.3095 79.4548
L102.3095 78.4548
" />
<path d="M103.3095 79.4548
L102.7381 79.4548
" />
<path d="M103.0238 79.4548
L103.0238 78.4548
" />
<path d="M103.0238 78.4548
L102.9286 78.5977
" />
<path d="M102.9286 78.5977
L102.8333 78.6929
" />
<path d="M102.8333 78.6929
L102.7381 78.7405
" />
</g></g>
<g style="fill:none; 
stroke:#000000; stroke-width:0.1200; stroke-opacity:1; 
stroke-linecap:round; stroke-linejoin:round;">
<path d="M163.6300 105.8300
L163.6300 104.5000
" />
<path d="M164.9600 105.8300
L163.6300 105.8300
" />
<path d="M166.2300 103.1700
L178.9900 103.1700
" />
<path d="M166.2300 105.8300
L166.2300 103.1700
" />
<path d="M166.2300 105.8300
L178.9900 105.8300
" />
<path d="M178.9900 105.8300
L178.9900 103.1700
" />
<path d="M138.4900 78.5100
L138.4900 81.1800
" />
<path d="M138.4900 83.7200
L138.4900 121.9500
" />
<path d="M138.4900 121.9500
L143.5700 121.9500
" />
<path d="M141.1600 81.1800
L138.4900 81.1800
" />
<path d="M141.1600 83.7200
L138.4900 83.7200
" />
<path d="M141.1600 83.7200
L141.1600 81.1800
" />
<path d="M141.1600 83.7200
L141.1600 119.2800
" />
<path d="M141.1600 119.2800
L138.4900 119.2800
" />
<path d="M143.5700 114.0700
L151.4500 114.0700
" />
<path d="M143.5700 124.4900
L143.5700 114.0700
" />
<path d="M151.4500 114.0700
L151.4500 124.4900
" />
<path d="M151.4500 124.4900
L143.5700 124.4900
" />
<path d="M153.8600 81.1800
L153.8600 119.2800
" />
<path d="M153.8600 81.1800
L156.5300 81.1800
" />
<path d="M153.8600 119.2800
L156.5300 119.2800
" />
<path d="M156.5300 78.5100
L138.4900 78.5100
" />
<path d="M156.5300 121.9500
L151.4500 121.9500
" />
<path d="M156.5300 121.9500
L156.5300 78.5100
" />
<path d="M109.8800 99.8300
L109.8800 98.5000
" />
<path d="M111.2100 99.8300
L109.8800 99.8300
" />
<path d="M112.4800 97.1700
L132.8600 97.1700
" />
<path d="M112.4800 99.8300
L112.4800 97.1700
" />
<path d="M112.4800 99.8300
L132.8600 99.8300
" />
<path d="M132.8600 99.8300
L132.8600 97.1700
" />
<path d="M123.9500 109.6500
L123.9500 110.9500
" />
<path d="M124.2500 109.9500
L126.2500 109.9500
" />
<path d="M124.2500 124.4500
L124.2500 109.9500
" />
<path d="M125.6500 109.6500
L123.9500 109.6500
" />
<path d="M131.4500 109.9500
L133.4500 109.9500
" />
<path d="M133.4500 109.9500
L133.4500 111.2500
" />
<path d="M133.4500 115.8500
L133.4500 124.4500
" />
<path d="M133.4500 124.4500
L124.2500 124.4500
" />
<path d="M165.6700 77.0900
L167.0000 77.0900
" />
<path d="M165.6700 78.4200
L165.6700 77.0900
" />
<path d="M165.6700 79.6900
L165.6700 87.3700
" />
<path d="M165.6700 79.6900
L168.3300 79.6900
" />
<path d="M165.6700 87.3700
L168.3300 87.3700
" />
<path d="M168.3300 79.6900
L168.3300 87.3700
" />
<path d="M109.8800 74.8300
L109.8800 73.5000
" />
<path d="M111.2100 74.8300
L109.8800 74.8300
" />
<path d="M112.4800 72.1700
L122.7000 72.1700
" />
<path d="M112.4800 74.8300
L112.4800 72.1700
" />
<path d="M112.4800 74.8300
L122.7000 74.8300
" />
<path d="M122.7000 74.8300
L122.7000 72.1700
" />
</g> 
</svg>
